<?xml version="1.0" encoding="utf-8"?>
<!-- Generator: Adobe Illustrator 26.0.0, SVG Export Plug-In . SVG Version: 6.00 Build 0)  -->
<svg version="1.1" id="Capa_1" xmlns="http://www.w3.org/2000/svg" xmlns:xlink="http://www.w3.org/1999/xlink" x="0px" y="0px"
	 viewBox="0 0 300 300" style="enable-background:new 0 0 300 300;" xml:space="preserve">
<style type="text/css">
	.st0{fill:#2C5D7C;}
</style>
<path class="st0" d="M44.6,111.1H53v1.6h-1.6c-0.3,0-0.8,0.3-1.5,1s-1.1,1.1-1.1,1.5v24.3c0,0.3,0.4,0.8,1.1,1.5s1.2,1,1.5,1H53v1.6
	H40.5v-1.6h1.6c0.3,0,0.8-0.3,1.4-1c0.7-0.6,1-1.1,1-1.5v-23.5L32.8,144l-11.7-28.6v24c0,0.3,0.3,0.8,1,1.5c0.7,0.6,1.2,1,1.4,1h1.6
	v1.6H15.1v-1.6h1.6c0.3,0,0.8-0.3,1.5-1s1-1.1,1-1.5v-24.3c0-0.3-0.3-0.8-1-1.5c-0.7-0.6-1.2-1-1.5-1h-1.6v-1.6h9.4l9.7,24.2h0.3
	L44.6,111.1z M64.7,140.1c1.4,0.1,2.8-0.2,4.1-0.9c1-0.7,1.9-1.7,2.5-2.8h1.3c-0.6,2.1-1.7,4-3.3,5.4c-1.7,1.4-3.9,2.1-6.2,2
	c-2.7,0.1-5.3-1.1-7-3.2c-1.7-2.2-2.7-4.9-2.6-7.6c-0.2-3,0.9-5.9,2.9-8.1c1.8-2,4.4-3,7-3c1.4,0,2.9,0.2,4.2,0.8
	c1.2,0.5,2.3,1.2,3.3,2.1l-3.1,4.8l-1.3,0.1c0.3-1.4,0.2-2.9-0.3-4.3c-0.5-1.3-1.9-2.1-3.4-1.9c-1.8-0.1-3.6,0.7-4.6,2.3
	c-1.1,1.8-1.6,3.9-1.5,6c-0.1,2.2,0.7,4.3,2.1,6C60.5,139.4,62.5,140.2,64.7,140.1z M85.5,143.4H72.8v-1.6h1.6c0.3,0,0.8-0.3,1.5-1
	c0.7-0.6,1-1.1,1-1.5v-24.3c0-0.3-0.3-0.8-1-1.5c-0.7-0.6-1.2-1-1.5-1h-1.6v-1.6h12.7v1.6h-1.6c-0.3,0-0.8,0.3-1.5,1
	c-0.7,0.6-1,1.1-1,1.5v13.2l11.6-12.9c0.2-0.3,0-0.8-0.6-1.6s-1.1-1.2-1.3-1.2h-1.6v-1.6h11.7v1.6h-1.6c-0.8,0.3-1.5,0.7-2.1,1.3
	c-1.1,0.9-1.8,1.4-2,1.6l-7.9,8.5l11.3,15c0.5,0.6,1.2,1.2,1.9,1.7c0.6,0.5,1.2,0.9,2,1.1h2.3c0.6-0.1,1.1-0.4,1.4-0.8
	c0.6-0.6,0.9-1,0.9-1.4v-13.2c0-0.3-0.3-0.8-0.9-1.3c-0.4-0.4-0.9-0.7-1.4-0.8h-1.3v-1.6h7.5v17c0,0.4,0.3,0.9,1,1.4
	c0.4,0.4,0.8,0.7,1.4,0.8h2.6c0.3,0,0.7-0.3,1.3-0.8c0.6-0.6,0.9-1,0.9-1.4v-13.2c0-0.3-0.3-0.8-0.9-1.3c-0.6-0.6-1.1-0.8-1.3-0.8
	h-1.3v-1.6h6.6l0.8,4.3c1.1-1.2,2.4-2.3,3.6-3.4c1.3-1,2.9-1.5,4.6-1.4c1.6,0,3.1,0.6,4.2,1.7c1.2,1.1,1.8,2.7,1.7,4.4v11.5
	c0,0.4,0.3,0.9,0.9,1.4c0.6,0.6,1.1,0.8,1.3,0.8h1.3v1.6h-11v-1.6h1.2c0.6-0.1,1.1-0.4,1.4-0.8c0.6-0.6,0.9-1,0.9-1.4v-11.2
	c0-0.9-0.3-1.9-0.8-2.6c-0.6-0.7-1.6-1.1-2.5-1c-1.7,0.1-3.3,0.6-4.6,1.6c-1.5,1.1-2.3,2-2.3,2.7v10.5c0,0.4,0.3,0.9,0.9,1.4
	c0.4,0.4,0.9,0.7,1.4,0.8h1.2v1.6h-30l-11.3-16.2l-3.3,3.5v8.6c0,0.3,0.3,0.8,1,1.5c0.7,0.6,1.2,1,1.5,1h1.6L85.5,143.4z
	 M96.7,179.9l-0.1-0.1c1.1,0.9,2.1,1.8,3.2,2.7s2.2,1.8,3.5,2.6h1.9v1.7h-3.5c-1.4,0-2.9-0.2-4.2-0.8c-1.4-0.6-2.7-1.5-3.9-2.6
	c-1.3,1.3-2.8,2.3-4.5,2.9c-2,0.7-4,1-6.1,1c-2.6,0-5.2-0.9-7.2-2.6c-2.1-1.7-3.3-4.2-3.2-6.9l0,0c0-2,0.5-3.9,1.4-5.6
	c0.9-1.6,2.2-3.1,3.8-4.1c-0.8-1-1.4-2-1.9-3.1c-0.5-1.2-0.7-2.4-0.7-3.7c-0.1-2,0.6-3.9,2.1-5.3c1.6-1.3,3.6-2,5.7-1.9
	c1.2,0,2.4,0.1,3.5,0.5c0.7,0.3,1.5,0.5,2.3,0.5c0.3,0,0.6,0,0.9-0.1c0.3-0.1,0.5-0.3,0.6-0.5H92v7.6h-1.4c-0.2-1.6-1-3-2.1-4.1
	c-1.3-1.6-3.3-2.5-5.3-2.4c-1.5-0.1-2.9,0.3-4.1,1.2c-1,0.8-1.6,2.1-1.5,3.4c0,1.3,0.4,2.5,1.3,3.4c0.9,1.1,2.1,1.9,3.4,2.3
	c2.1,2.2,4.3,4.5,6.7,6.7s4.7,4.4,6.9,6.3c0.6-1,1-2,1.3-3.1c0.3-1.2,0.4-2.4,0.4-3.6c0.1-1.3-0.4-2.6-1.4-3.5
	c-1-0.9-2.4-1.4-3.7-1.3v-1.6h11.5v1.5h-1.3c-0.3,0-0.8,0.5-1.6,1.4c-0.6,0.6-1,1.3-1.2,2.1v0.1c-0.1,1.6-0.3,3.2-0.8,4.7
	C98.3,177.2,97.6,178.6,96.7,179.9L96.7,179.9z M85.7,184.8c1.3,0,2.6-0.2,3.9-0.6c1.1-0.4,2.2-0.9,3.1-1.6l-0.3-0.2
	c-2.4-2.1-4.7-4.3-7-6.5c-2.3-2.2-4.5-4.6-6.7-7c-0.8,0.8-1.4,1.8-1.9,2.9c-0.5,1.3-0.7,2.6-0.7,4c0.1,2.4,1.2,4.7,3.1,6.2
	C81,183.7,83.3,184.7,85.7,184.8L85.7,184.8z M108.9,117.4L108.9,117.4c-0.8,0-1.5-0.3-2-0.8c-0.5-0.5-0.8-1.1-0.8-1.8v-0.1
	c0-0.7,0.3-1.5,0.8-2c1.1-0.9,2.8-0.9,3.9,0c0.5,0.5,0.8,1.2,0.8,2h-0.1c0.1,0,0.1,0,0.1,0.1c0,0.7-0.3,1.4-0.8,1.8
	c-0.5,0.5-1.1,0.8-1.8,0.8C109.1,117.4,108.9,117.4,108.9,117.4z M130.2,184.6c2.3,0.1,4.6-0.5,6.5-1.7c1.7-1.3,3-2.9,3.9-4.9h1.7
	c-0.9,2.7-2.7,5.1-4.9,6.8c-2.4,1.7-5.2,2.6-8.1,2.5c-4.3,0.2-8.4-1.7-11.2-5c-2.8-3.3-4.3-7.6-4.2-11.9c-0.1-4.2,1.2-8.4,3.9-11.7
	c2.6-3.2,6.5-5,10.6-4.9c1.5,0,3,0.2,4.4,0.7c1.2,0.5,2.5,0.7,3.8,0.7c0.4,0,0.8-0.1,1.2-0.2c0.3-0.2,0.6-0.4,0.8-0.6h1.2v11.4h-1.4
	c-0.2-2.3-1.1-4.5-2.6-6.3c-1.6-2.4-4.3-3.9-7.2-3.8c-2.5-0.1-4.9,0.8-6.6,2.5c-1.8,2.2-2.9,5-2.9,7.9V166c-0.1,0.6-0.1,1.2-0.1,1.8
	c0,0.6,0,1.3,0,1.9c0,0.8,0,1.6,0.1,2.4s0.1,1.6,0.2,2.2c0.2,2.7,1.4,5.3,3.3,7.2C124.5,183.6,127.3,184.7,130.2,184.6z
	 M156.7,137.6c0.1,1.8-0.6,3.5-1.9,4.7c-1.3,1.2-3.1,1.8-4.8,1.7c-1.2,0-2.3-0.2-3.4-0.6c-0.8-0.4-1.8-0.6-2.7-0.6
	c-0.3,0-0.6,0-0.9,0.2l-0.7,0.5h-1V136h1.3c0.2,1.4,0.9,2.8,2,3.8c1.3,1.6,3.3,2.4,5.4,2.3c1,0.1,2.1-0.2,3-0.7
	c0.7-0.5,1.1-1.3,1.1-2.1c0.1-1-0.4-2-1.3-2.6c-0.8-0.5-1.7-1-2.6-1.4c-0.8-0.3-1.5-0.6-2.1-0.9c-0.7-0.3-1.4-0.6-2.2-0.9
	c-1.2-0.5-2.3-1.3-3.2-2.2c-0.9-0.9-1.3-2.2-1.3-3.5c-0.1-1.6,0.5-3.2,1.7-4.3c2.2-1.5,5-1.9,7.5-0.9c0.7,0.4,1.5,0.5,2.3,0.6
	c0.2,0,0.5,0,0.7-0.1c0.2-0.1,0.4-0.3,0.5-0.5h1.1v6.4h-1.3c-0.2-1.3-0.8-2.4-1.7-3.4c-1.1-1.4-2.9-2.2-4.6-2.1
	c-1-0.1-1.9,0.2-2.7,0.8c-0.6,0.5-0.9,1.2-0.9,1.9c-0.1,0.8,0.3,1.5,0.9,2c0.8,0.6,1.6,1,2.5,1.4c0.8,0.3,1.5,0.6,2.2,0.9l2.3,0.9
	c1.2,0.5,2.3,1.2,3.3,2.1C156.2,134.7,156.8,136.1,156.7,137.6L156.7,137.6z M162.2,168.2c2.2,2.1,3.3,5,3.1,8c0.2,3-1,6-3.1,8.1
	c-1.9,1.9-4.5,3-7.2,3c-2.7,0-5.4-1.1-7.3-3c-2.2-2.1-3.3-5.1-3.1-8.1c-0.3-5.7,4.1-10.6,9.8-11c0.2,0,0.5,0,0.7,0
	C157.6,165.3,160.3,166.3,162.2,168.2L162.2,168.2z M161.2,179.7v0.2c0.1-0.6,0.1-1.2,0.1-1.8s0-1.2,0-1.8s0-1.2,0-1.8
	c0-0.6-0.1-1.1-0.1-1.6c-0.1-1.5-0.8-3-1.8-4.1c-1.2-1.1-2.8-1.6-4.4-1.5c-1.6-0.1-3.1,0.4-4.3,1.5c-1,1.1-1.7,2.5-1.8,4v-0.1
	c-0.1,0.6-0.2,1.2-0.2,1.8c0,0.6,0,1.2,0,1.8s0,1.2,0,1.8c0,0.6,0.1,1.1,0.2,1.6c0.2,1.5,0.8,2.9,1.8,4c1.1,1.1,2.7,1.7,4.3,1.6
	c1.6,0.1,3.3-0.4,4.4-1.6C160.4,182.6,161,181.2,161.2,179.7z M168,144c-2.7,0.1-5.2-1.1-6.9-3.2c-1.8-2.1-2.8-4.9-2.7-7.7
	c-0.1-2.9,0.9-5.7,2.8-7.9c1.7-2.1,4.2-3.2,6.9-3.1c2.1-0.1,4.1,0.7,5.5,2.1c1.3,1.4,2.1,3.2,2.1,5.2l0.1,1.5l-13.9,1.1
	c0,2,0.7,3.9,2,5.5c1.3,1.7,3.4,2.7,5.5,2.6c1.4,0.1,2.9-0.2,4.1-0.9c1-0.7,1.9-1.6,2.5-2.7h1.3c-0.5,2.1-1.6,3.9-3.2,5.4
	C172.4,143.4,170.2,144.1,168,144L168,144z M167.9,123.7c-1.9-0.2-3.7,0.7-4.7,2.2c-0.9,1.4-1.5,3-1.6,4.7l10.5-0.9
	c0.2-1.4,0-2.8-0.5-4.2C171.2,124.3,170,123.6,167.9,123.7L167.9,123.7z M193.3,185.2c0.3,0,0.8-0.3,1.4-0.9s0.9-1,0.9-1.4v-11.4
	c0-0.9-0.2-1.8-0.8-2.5c-0.7-0.7-1.6-1.1-2.6-1c-1.5,0-2.9,0.6-4.1,1.5c-1.4,1-2.1,1.9-2.1,2.5V183c0,0.3,0.3,0.8,0.9,1.4
	c0.6,0.6,1,0.9,1.3,0.9h1.3v1.6h-10.7v-1.6h1.2c0.3,0,0.8-0.3,1.4-0.9c0.6-0.6,0.9-1,0.9-1.4v-11.4c0-0.9-0.3-1.8-0.8-2.6
	c-0.7-0.7-1.6-1-2.5-1c-1.5,0-3,0.6-4.1,1.6c-1.4,1.1-2.1,2-2.1,2.7V183c0,0.3,0.3,0.8,0.9,1.4c0.6,0.6,1.1,0.9,1.4,0.9h1.2v1.6
	h-10.7v-1.6h1.3c0.3,0,0.7-0.3,1.3-0.9c0.6-0.6,0.9-1,0.9-1.4v-13.4c0-0.3-0.3-0.8-0.9-1.3c-0.6-0.6-1-0.8-1.3-0.8h-1.3v-1.6h6.4
	l0.8,4c1.2-1.3,2.3-2.4,3.4-3.2c1.2-0.9,2.8-1.4,4.3-1.3c1.3,0,2.6,0.4,3.7,1.1c1.1,0.8,1.8,2,1.9,3.3c1.3-1.2,2.5-2.3,3.5-3.1
	c1.2-0.9,2.7-1.3,4.2-1.3c1.5,0,3,0.5,4.1,1.6c1.2,1.2,1.8,2.8,1.7,4.4v11.4c0,0.3,0.3,0.8,0.9,1.4c0.6,0.6,1,0.9,1.3,0.9h1.3v1.6
	h-10.7v-1.6L193.3,185.2z M179.3,126.5c-0.3-0.5-0.8-1-1.3-1.4c-0.7-0.6-1.2-0.9-1.4-0.9h-0.9v-1.6h11.3v1.6h-1.3
	c-0.3,0-0.6,0.3-1.1,0.8c-0.4,0.4-0.6,0.9-0.7,1.4l5,10.3l4.6-10.2c0-0.6-0.2-1.1-0.6-1.5c-0.5-0.6-0.9-0.8-1.1-0.8h-1.4v-1.6h8.5
	v1.6h-0.9c-0.3,0-0.7,0.3-1.3,0.9c-0.5,0.4-0.8,0.9-1.1,1.5l-7.2,15.2l-6.2,11.8l-1.8-0.9l6.4-11.5L179.3,126.5z M217.2,165.4
	c2.4-0.1,4.6,1,6,2.9c1.5,2.3,2.3,5,2.1,7.7c0.1,2.9-0.7,5.7-2.4,8c-1.4,2-3.7,3.2-6.2,3.2c-1.5,0.1-3.1-0.3-4.4-1.1
	c-1.2-0.8-2.1-1.9-2.8-3.1v10.1c0,0.4,0.3,0.9,0.9,1.4c0.6,0.6,1.1,0.8,1.3,0.8h1.4v1.5h-11v-1.6h1.3c0.5-0.1,1-0.4,1.4-0.8
	c0.5-0.3,0.8-0.9,0.9-1.4v-23.4c0-0.3-0.3-0.8-0.9-1.3c-0.4-0.4-0.8-0.7-1.4-0.8h-1.3v-1.7h6.8l0.7,4.4c0.8-1.5,1.9-2.7,3.2-3.7
	C214.1,165.7,215.7,165.2,217.2,165.4L217.2,165.4z M221.4,179.4L221.4,179.4l0.2-1.6c0.1-0.6,0.1-1.1,0.1-1.7c0-0.5,0-1-0.1-1.5
	c-0.1-0.5-0.1-0.9-0.2-1.4c-0.1-1.5-0.7-2.9-1.7-4c-0.9-1-2.2-1.5-3.6-1.4c-1.6-0.1-3.1,0.5-4.2,1.6c-1.1,1.1-1.9,2.5-2.3,4.1v5.5
	c0,1.6,0.6,3.1,1.8,4.2c1.1,1.2,2.7,1.8,4.3,1.8h0.1c1.5,0.1,3-0.5,4-1.6C220.7,182.3,221.3,180.9,221.4,179.4L221.4,179.4z
	 M268.8,183c0,0.3,0.3,0.8,0.9,1.4c0.6,0.6,1.1,0.9,1.3,0.9h1.3v1.6h-11v-1.6h1.2c0.3,0,0.7-0.3,1.3-0.9c0.6-0.6,0.9-1,0.9-1.4
	v-11.4c0-0.9-0.3-1.8-0.8-2.6c-0.6-0.7-1.5-1.1-2.5-1.1c-1.7,0.1-3.3,0.6-4.6,1.7c-1.5,1.1-2.3,2-2.3,2.7v10.6
	c0,0.4,0.3,0.9,0.9,1.4c0.4,0.4,0.9,0.7,1.4,0.8h1.2v1.6h-17.8l-0.6-4.4c-0.9,1.2-1.9,2.2-2.9,3.2c-1.1,1-2.5,1.6-4,1.6
	c-1.4,0-2.8-0.6-3.8-1.6c-1.1-1.1-1.7-2.6-1.6-4.1c-0.2-1.8,0.7-3.6,2.3-4.5c1.4-0.8,2.9-1.4,4.5-1.8l5.5-1.1l0.1-2.5
	c0.1-1.3-0.4-2.5-1.2-3.5c-1.1-1-2.6-1.5-4-1.3c-1.4-0.2-2.8,0.5-3.6,1.7c-0.6,1.4-0.6,3,0.2,4.4h-1.5l-2.9-4.2
	c2.3-2.3,5.5-3.5,8.7-3.4c2.1-0.1,4.1,0.5,5.8,1.6c1.6,1.1,2.4,2.9,2.3,4.7v11.2c0,0.3,0.3,0.8,0.9,1.3s1.1,0.8,1.3,0.8h2.5
	c0.6-0.1,1.1-0.4,1.4-0.8c0.6-0.6,0.9-1,0.9-1.3v-13.3c0-0.3-0.3-0.8-0.9-1.3c-0.4-0.4-0.9-0.7-1.4-0.8h-1.3v-1.7h6.6l0.8,4.4
	c1.1-1.2,2.3-2.3,3.6-3.4c1.3-1,3-1.5,4.6-1.4c1.6,0,3.1,0.6,4.1,1.7c1.2,1.1,1.8,2.7,1.7,4.4L268.8,183z M239.9,175.5l-5,1.3
	c-1.1,0.2-2.1,0.7-2.8,1.5c-0.5,0.8-0.8,1.6-0.8,2.6v0.1c0,0.9,0.3,1.7,0.9,2.3c0.6,0.6,1.4,1,2.3,1h0.1c1.1,0,2.2-0.5,3-1.3
	c0.9-0.7,1.6-1.5,2.1-2.4L239.9,175.5z M293.2,165.9v1.6h-1c-0.2,0-0.6,0.3-1.2,0.9c-0.4,0.4-0.9,0.9-1.2,1.4l-7,15.3l-6.3,11.7
	l-1.8-0.9l6.3-11.5l-7.4-14.5c-0.4-0.5-0.8-1-1.3-1.4c-0.7-0.6-1.2-0.9-1.4-0.9h-1v-1.6h11.3v1.6h-1.3c-0.3,0-0.7,0.3-1.1,0.8
	c-0.4,0.4-0.6,0.9-0.7,1.4l5,10.3l4.6-10.3c0-0.5-0.2-1.1-0.6-1.4c-0.5-0.6-0.9-0.8-1.1-0.8h-1.3v-1.6H293.2z"/>
</svg>
