<svg id="Capa_1" data-name="Capa 1" xmlns="http://www.w3.org/2000/svg" viewBox="0 0 300 300"><defs><style>.cls-1{fill:#2c5d7c;fill-rule:evenodd;}</style></defs><path class="cls-1" d="M288.34,112H229.68a11.94,11.94,0,0,1,11.94-11.24h0V74.51h0C187.43,72.61,162.07,54.93,150.4,46c-11.68,8.94-37.11,26.62-91.3,28.52h0v26.23h0A11.94,11.94,0,0,1,71,112h-59V184.5H66.88c0,2.32-1.23,9.18-16,10.82,10.09,9.27,68.93,59.19,99.48,59.19s89.53-49.92,99.62-59.19c-13.77-1.5-16-7.55-16-10.82h54.27V112ZM65.09,96.26V79.9h0c49-2.55,73.24-17.26,85.3-26.3,12.93,9.17,36.18,23.75,85.22,26.3h0l0,16.36h0A17.18,17.18,0,0,0,223.88,112H218A23,23,0,0,1,229.6,92.6h0l0-7.4h0C190,82.41,164.17,70.13,150.4,60.66c-12,8.83-36.2,20.65-79.3,24.54h0l0,7.4h0A23,23,0,0,1,82.73,112H76.84A17.23,17.23,0,0,0,65.09,96.26Zm147.57,9.06V112h-6.41v-5.23h0c0-1.64-2-2.39-2.87-2.39h-6.13V112h-6.41V83.84L206.25,87h0c2.18.48,6.41,1.91,6.41,6.14h0v4.57h0c0,1.63-.21,3.07-2.25,4.09a5.4,5.4,0,0,1,2.25,3.48ZM185.38,88.54v17.18h0c.07,2.12-1.16,6.26-6.75,6.26h-8.38c-2.8,0-6.41-1.48-6.41-6.53h0V80.36h0c0-3,3.06-4.91,6.47-3.68h0L181.5,81h0c2.72,1.09,3.95,3.48,3.88,7.57ZM138.74,80.7V73.61l11.66-6.34L162.61,74V81l-8.46-4.57V112h-7V76.06l-8.46,4.64Zm-.81-.34v25.09h0c0,5-3.62,6.53-6.41,6.53h-8.39c-5.59,0-6.82-4.14-6.75-6.26h0V88.54h0c-.07-4.09,1.16-6.48,3.89-7.57h0l11.18-4.29h0c3.41-1.23,6.48.68,6.48,3.68ZM101.17,112l-5.25-11.23V112H89.51V88.34l6.41-1.16L101,98l5.59-13,6-1.57V112h-6.41V100.34l-5,11.64Zm135.22,85.8c-16.1,16.36-64.72,50.45-86,50.45s-69.75-34.09-85.84-50.45c8.32-3.69,9.68-9.05,10.23-13.28h6.68c-.41,4-1.23,10.28-6.68,14.09,6.27,6,53.24,43.64,75.61,43.64s69.49-37.64,75.76-43.64c-5.46-3.81-6.27-10.13-6.68-14.09h6.68c.54,4.23,1.91,9.59,10.23,13.28Zm-141,3.8c.36.24,14.76,11.47,14.76,11.47h0v6.83h0s-20.25-15.13-20.86-15.5a6.61,6.61,0,0,1-2-3.41c-.24-1.22,0-11,0-12.08s1.22-4.39,2.93-4.39H106V191H96.56c-1.47-.13-2.32.36-2.32,1.7h0v7.2h0a2.64,2.64,0,0,0,1.1,1.71Zm14.39-17.08h6.58l3.54,11,5.74-11h6.22l-8.91,19.28v23.06h0c0,1.09-6.22-2.32-6.34-3.17s0-20.14,0-20.14h0l-6.83-19Zm30.75,41.83c.37.73,8.42,4.51,8.42,4.51h0v7.57h0s-12.93-5.49-14.15-6.72a4.79,4.79,0,0,1-1.47-3.41h0V190h0c0-2.32,4.64-5.47,5.74-5.47h9.51v6.94h0c0,.24-5.49.24-6.83,0-.73-.13-1.7.85-1.7,4.27h0V224h0a4.06,4.06,0,0,0,.48,2.32Zm27.45-1.83v6.58h0s-10.74,4.76-12.44,5.62c-1,.48-2.08-.37-2.08-1.83h0V184.5h7.32v42.92l7.2-2.92Zm15.73-23.17V207h-6.83v13.54l8.29-3.91v6l-11,5.49h0c-1.34.61-3,0-3-1.22h0V186.94h0a2.44,2.44,0,0,1,2.44-2.44h12.81v6.95h-9.51v9.88Zm21.09.48s-10.73.24-12.68,0-2.57-.61-2.57-2-.12-9.27,0-11.59,3.91-3.51,5.62-3.76,16.1,0,16.1,0h0v6.33H195.73c-.61,0-.49,5.24,0,5.24h13.9c2,0,1.71.49,1.71,1.34h0v7.81h0c0,.86-1.22,1.83-1.71,2.32s-20.74,12.69-20.74,12.69h0v-5.49h0s16.23-10.25,16.35-11a2.39,2.39,0,0,0-.49-1.95Zm77.73-23.4H18.19V119H282.48v59.46Zm-158.19-92,5.18-2.05h0c1-.41,2.05,0,2.05,1.5h0v17.46h0a1.86,1.86,0,0,1-2,2.11h-4.71c-1.5,0-2-.75-2-2h0V89.56h0c0-1.5.14-2.45,1.5-3.13ZM179,89.56v13.91h0c0,1.23-.54,2-2,2h-4.71a1.86,1.86,0,0,1-2-2.11h0V85.88h0c0-1.5,1.09-1.91,2-1.5h0l5.18,2.05h0c1.37.68,1.5,1.63,1.5,3.13ZM204.88,93c1.37.28,1.37,1.57,1.37,2.73S206,98,204.82,98h-7.57V91.41L204.88,93ZM24.33,124.41v47.86H276.48V124.41Zm23.52,42.27H42.3v-16H37.91v16H32.36V129.4h5.55v14.91H42.3V129.4h5.55v37.28Zm12.93,0-1-9.7H55.73l-1.13,9.7h-5l4.24-37.28h8.33l4.24,37.28ZM84,141.08c0,2.77-.51,4.94-2.5,6.52.29.33,2.43,1.76,2.49,4.28h0v14.8H78.47V154.21h0c0-2.25-1-3-4.5-3h0v15.44H68.42V129.4h9.17c4.46,0,6.43,1.57,6.43,6.39h0v5.29Zm14.4,25.6H87.23V129.4h5.55v31.39h5.64v5.89Zm13.44,0H100.28V129.4h11.47v5.82h-5.92v9.11h5.66v5.89h-5.66v10.57h6v5.89Zm12.87,0h-5.55V152.75l-5.71-23.35h5.71l3,13,3.08-13h5.19l-5.71,23.09v14.19Zm14.15-16.43H128.72v-4.7h10.16v4.7Zm17.49,9.68c0,3.56-2.3,6.75-6.59,6.75h-7.91V129.4h6.7c5.5,0,7.8,1.88,7.8,8.43h0v22.1Zm12.68,6.75-1-9.7H164l-1.13,9.7h-5l4.24-37.28h8.33l4.24,37.28Zm15.28,0h-6.21l-5.21-37.28h5.66l2.7,22.42L184,129.4h5.59l-5.22,37.28Zm12.33,0h-5.55V129.4h5.55v37.28Zm17.81-6.75c0,3.56-2.31,6.75-6.6,6.75H200V129.4h6.71c5.49,0,7.8,1.88,7.8,8.43h0v22.1Zm18.06-17.88H227v-5.2h0c0-1.88-1.12-2.3-2.22-2.3s-2.2.42-2.2,2.3h0V141h0c0,2.67,9.9,7.4,9.9,11.17h0v9h0c0,4.87-4.3,6.29-7.75,6.29s-7.64-1.42-7.64-6.29h0V153h5.55v6.62h0c0,1.88,1,2.3,2.14,2.3s2.15-.42,2.15-2.3h0v-3.93h0c0-5.24-9.91-6.69-9.91-12.76h0v-8h0c0-4.87,4.3-6.29,7.71-6.29s7.82,1.42,7.82,6.29h0v7.1Zm18,19.08c0,4.87-4.48,6.29-7.88,6.29s-7.77-1.42-7.77-6.29h0V135h0c0-4.87,4.37-6.29,7.77-6.29s7.88,1.42,7.88,6.29h0v26.18Zm19.05,5.55h-6.79l-4.41-21.22v21.22h-5.58V129.4h7.51L264,148.35V129.4h5.64v37.28Zm-213.22-16,1.3-14.47h.36l1.09,14.47ZM74,134.53h2.2a2.07,2.07,0,0,1,2.09,2.31h0v5.6h0c0,1.36-.42,3-2.35,3H74V134.53Zm73.45.75h1.31c1.41,0,2.09.37,2.09,2.78h0v20h0c0,2.41-.68,2.78-2.09,2.78h-1.31V135.28Zm17.25,15.4L166,136.21h.37l1.09,14.47Zm40.84-15.4h1.31c1.42,0,2.1.37,2.1,2.78h0v20h0c0,2.41-.68,2.78-2.1,2.78h-1.31V135.28Zm35,23.61V137h0a2.28,2.28,0,1,1,4.55,0h0v21.9h0a2.28,2.28,0,1,1-4.55,0Z"/></svg>