<svg id="Capa_1" data-name="Capa 1" xmlns="http://www.w3.org/2000/svg" viewBox="0 0 300 300"><defs><style>.cls-1{fill:#2c5d7c;fill-rule:evenodd;}</style></defs><path class="cls-1" d="M282.31,177.6a2.09,2.09,0,0,1,.86.68,3.54,3.54,0,0,1,.63,1.77,3.07,3.07,0,0,1-.32,1.34,1.81,1.81,0,0,1-1.06.91,1.7,1.7,0,0,1,.87.77,3.14,3.14,0,0,1,.26,1.46c0,1.08-.1,2.13-.07,2.27l-1.82,0,0-1.32v-.89a1.83,1.83,0,0,0-.31-1.22,1.64,1.64,0,0,0-1.12-.29h-1.92v3.72H276.5v-9.47h4.37a3.83,3.83,0,0,1,1.44.24Zm-4,1.39v2.54h2.11a2.29,2.29,0,0,0,.94-.14,1,1,0,0,0,.56-1,1.26,1.26,0,0,0-.54-1.18,2.22,2.22,0,0,0-.91-.17Zm-6.27-1.63h2.67v9.47H273v-8l-1.69,8h-1.8l-1.68-8v8h-1.73v-9.47h2.71l1.62,7.43,1.61-7.43Z"/><path class="cls-1" d="M117.06,178.44c-9.74-6.27-23-7.37-44.29-1.46-22.73,5.34-30.31,8.77-40.27,1.89-3.82-3.37-5.19-8.81-4.17-16.64,2.38-12.77,8.79-25.06,20.19-38.69,6.36-7.09,12.26-13.17,20.06-15.62,6-1.53,5.41,3.16,4.69,3.84a5.82,5.82,0,0,0-3,.76c-.81.62-3,2.64-3.13,5.34-.17,4.15,4.12,3.28,6,1,2-2.56,4.94-7.47,2.62-12.05A6.83,6.83,0,0,0,71,103.68c-7.13-.4-13.78,3-19.91,6.76A87,87,0,0,0,20.83,146.8c-3.5,8.53-6.66,20.74-1.92,30.68,3.67,6.9,11.29,10.57,20.39,9.8,6.37-.67,14.08-2.73,19.27-4S90.3,172.93,99,188.82a11.78,11.78,0,0,1,10.15-5.75c6-.55,14.55,1.72,20.81,6.32-2.08-3.14-8-7.76-12.93-10.95Z"/><path class="cls-1" d="M75.48,125.15c-5-3.26-15,3-22.94,13.65-7.31,9.58-10.47,20.72-7,25.87,5.11,6.06,14.59-2.75,18.63-7.47l.52-.55a59.16,59.16,0,0,0,6.91-9.9l2-3.26c1.16-.21,2.56-.55,4.15-1,0,.07-6,10.2-5.44,15.23.19,1.54,0,7.14,5.52,8.84,7.29,1.22,13.12-4.43,18.25-9.46l1.38-1.32c-.13.51-.29,1.18-.29,1.18-2.14,7.42.74,9,2.54,9.55,5.44,1.59,11.94-6.32,12-6.32-.17,2.49-.66,4.55,2,6.2,2.47.89,5-.43,6.89-1.7,6.86-4.84,12.39-12.45,16.86-18.92h-2.85s-7,10.11-11.57,12.31c0,0-.84.41-1.31.07-.59-.5-.36-1.63,0-2.37l17.55-30.51h-8.28s-.9,1.53-1,1.62a3.14,3.14,0,0,1-.28-.38c-5.13-7.09-16.74,3.83-25.48,16.48a83,83,0,0,1-12.08,14.3s-6.58,6-9.4,1.7c-1-1.82-.71-4.48-.13-6.23,3.27-9.31,8.92-17.77,15.33-22.87,1.82-1.42,3.79-1.82,4.76-1.22a2.07,2.07,0,0,1,.49,2.85,4.58,4.58,0,0,0-3.66,1.41c-1.92,2-2.59,3.95-2,5.77,3,4.22,8.87-4.12,8.59-9.2a5.46,5.46,0,0,0-2.52-4.38c-2.17-1.29-5.46-1-7.59.07-2.86,1.08-7.38,4.84-10,7.76-3.32,3.67-9,7.74-10.8,7.29.59-1.56,5.4-11.41.34-15.09Zm39.88,14.56a115.52,115.52,0,0,1,7.44-9.2c3.84-3.38,5.37-1.89,5.51-.84-3.59,6.42-7.82,13.78-11.79,20.39,0,0-1.25,1.89-1.25,1.89-1.76,2.68-3.52,5-6.41,6.59a1.89,1.89,0,0,1-1.54-.17,1.64,1.64,0,0,1-.7-1.58c.18-2.06,2.27-8.36,8.74-17.08Zm-45,3.86a2.49,2.49,0,0,1-.11.28s-3.61,5.87-3.61,5.87c-2.17,2.9-4.88,6.54-8.27,8.29-1,.34-2.39.55-3.1-.33-1.5-1.8-.73-4.29-.1-6.3l.22-.72a59.52,59.52,0,0,1,7.44-13.2.34.34,0,0,1,.14-.05.15.15,0,0,1,0,.07,11.93,11.93,0,0,0,7.46,5.63s0,0,0,.07a1.35,1.35,0,0,1-.13.39Zm3.41-6.93-1.61,3.69c-.23.19-.59.1-1,0l-.72-.12a6.39,6.39,0,0,1-4.44-4c-.72-3.45,2.23-6.16,3.53-7.14s3.18-1.32,4.3-.43a4.49,4.49,0,0,1,1,3,16.5,16.5,0,0,1-1,4.93Z"/><path class="cls-1" d="M178.36,147.76a4.87,4.87,0,0,0-4.71-2.71c-6.56.6-13,6-16.33,13.73A39.47,39.47,0,0,0,154,171.26a34.61,34.61,0,0,1,10.91-8.32,22.82,22.82,0,0,1,3.92-9.46c1.24-1.84,3.72-4.81,6.5-4,2.43.81,1.58,7.54-1.65,14.06a45.32,45.32,0,0,1-9.76,12.89c-3.27,2.78-8.11,6.13-12.35,3.54-2.67-1.58-4-4.88-3.74-9.15,1.27-12.1,6.78-22.4,14.66-34.13,8.12-10.9,17.08-22.09,29.15-28,2.46-1.25,4.74-1.54,6.71-.77,0,0-11.33,6.23-16.73,17.75-1.37,2.92-3.28,6.87-1.36,10.37,1,1.82,2.79,2,4.23,1.87,6.61-1.53,10.89-7.71,14.38-13.37,2-4.28,3.83-8.55,3.83-13.29,0-.57,0-1.34-.08-1.92,3.16-1.67,9.65,1.3,9.65,1.3,5.06,1.67,15.85,9.94,19.49,11.52,1.77-2.06,4.69-5.17,6.33-6.73l-2.37-1.46c-3.81-2.33-7.83-4.53-11.8-6.71-9-4.91-16.31-3.19-20-1.84l-2.8,1c-2.77-3-7.3-2.73-10.64-1.92-12,3.45-23.17,11.86-35.14,26.45-8.79,11.42-14.24,21.29-17.15,31-2.24,6.56-2.92,16.22,2.55,21.94,4.65,4.86,10.81,3.81,15.17,2.06,9.43-4.64,17.91-14.66,22.14-26.18,1-3.42,2.15-8.26.4-12Zm21.69-36.1c-1.25,14.32-12.38,22.73-15.14,23.4-1.67.34-4.52-.4-2-6.42,3.74-8.09,10.14-15,17-18.49a3.77,3.77,0,0,1,.11,1.51Z"/><path class="cls-1" d="M266.1,113.48c-6,3.4-12.2,5.6-19.71,4.84-2.09,2.35-4.11,4.77-6,7.26,10.55,2.68,21.73-3.29,28-9a44.23,44.23,0,0,0,10-12.94,52.37,52.37,0,0,1-12.26,9.8Z"/><polygon class="cls-1" points="152.91 125.27 145.05 125.27 140.62 132.76 148.47 132.76 152.91 125.27 152.91 125.27"/><path class="cls-1" d="M246.36,179.19c-.85.57-2,.09-1.59-1.23,1.1-3.35,5.5-10.25,5.5-10.25l12.24-21.77h-8.39c-.39.72-1.25,2.2-1.25,2.2a10.93,10.93,0,0,0-2-2.37c-2-1.29-5.06-.67-7.13.5-9,5.27-15.59,15.69-20.78,23.81,0,0-5.46,9-8.49,9.7-2.36.2-2.12-3-2-3.73A61,61,0,0,1,217.61,161a114.84,114.84,0,0,0,13.84-11.31c9.8-9.37,18.06-20,19.27-22.35a19.69,19.69,0,0,1-2.85.31c-7.54,10.52-23,25.8-27.64,28.08,2.07-5,15.45-28.77,26.84-40.15l1.8-1.73c2.77-2.7,5.64-5.48,7.88-5.94.24,0,.54,0,.8.56a10.33,10.33,0,0,1-1.58,5.43l-1.26,2.59s1.78-.34,3-.72c1.36-2.56,2.87-5.44,2.31-8.86a2.54,2.54,0,0,0-2-2.13c-3.4-.65-7.11,1.86-10.09,3.9l-.12.07c-15.31,12-28.25,29.3-39.56,52.92-.82.62-4,1.36-4.52,1a38.64,38.64,0,0,0,3.22-8.74,21.81,21.81,0,0,0,.24-2.9,6.11,6.11,0,0,0-2.34-5.34,8.11,8.11,0,0,0-6.65.24c-8.08,3.35-14.13,11.64-18.49,18.47-2.34,4.33-4.68,9-5.33,14.3-.45,4.17.48,6.85,2.85,8.19s5.5,0,6.7-.67c8.19-4.31,13.92-13,18.43-20.86a27.28,27.28,0,0,0,4.5-.58.1.1,0,0,1,.08,0c-.11.35-1.07,3.23-1.07,3.23-2.86,8.38-4.18,14.08-1.48,17.46,3.86,4.77,10.24-.17,15.44-6.68-1.11,7.81,2.93,9,6,8.43,3.54-1,7.49-4.74,9.32-6.68-.59,2.27-.42,6.34,2.8,6.75,2.21.41,3.86-.72,5.78-1.75,6.86-3.73,15.07-16.26,17.21-19.71h-2.8c-3,4.48-6.89,10.52-11.74,13.37Zm-61.61-.91a3.83,3.83,0,0,1-.59-2.16c-.09-4.7,5-13.06,8.53-17.73h0c1.5,3.48,4.88,5.42,6.92,6.3-2.53,5.66-11.24,17.8-14.87,13.59Zm16.31-16.08c-.25.17-4.51-1.27-5.34-5.22-.7-3.4,1.64-6.06,3.91-7.4a3.93,3.93,0,0,1,3.52-.65,3.57,3.57,0,0,1,1.26,3.16,19.78,19.78,0,0,1-.19,2.35s0,.14,0,.17a32.55,32.55,0,0,1-3.14,7.59Zm34.23,14.57-.81.71c-1.15,1-2.33,2.14-3.76,1.59A1.42,1.42,0,0,1,230,178c-.07-3,1.26-5.68,2.54-8.34l.33-.69c3.71-6.18,8-13.47,14.33-18.52,1.06-.77,2.22-1.41,3.44-.91a1.78,1.78,0,0,1,.6,1.17,1.82,1.82,0,0,1-.2.65c-1.76,2.85-3.45,5.85-5.08,8.72-3.19,5.68-6.51,11.55-10.65,16.7Z"/></svg>