<svg id="Capa_1" data-name="Capa 1" xmlns="http://www.w3.org/2000/svg" viewBox="0 0 300 300"><defs><style>.cls-1{fill:#2c5d7c;fill-rule:evenodd;}</style></defs><path class="cls-1" d="M85.23,119.74c-5.23-5.37-11.71-8-19.57-8A26.17,26.17,0,0,0,46.23,120a27.45,27.45,0,0,0,0,38.72A26.17,26.17,0,0,0,65.66,167v8.82a35.07,35.07,0,0,1-25.77-10.75,36.45,36.45,0,0,1,0-51.68,35.11,35.11,0,0,1,25.77-10.75A35.09,35.09,0,0,1,91.43,113.4a35.2,35.2,0,0,1,10.89,25.91h-9.1a26.71,26.71,0,0,0-8-19.57Z"/><polygon class="cls-1" points="112.24 175.55 112.24 157.09 120.92 157.09 120.92 202.98 112.24 202.98 112.24 183.13 92.95 183.13 92.95 202.98 83.85 202.98 83.85 157.09 92.95 157.09 92.95 175.55 112.24 175.55 112.24 175.55"/><path class="cls-1" d="M152.07,186c0,7-2.48,10.47-7.31,10.47-5.1,0-7.71-3.45-7.71-10.47,0-6.76,2.61-10.2,7.71-10.2,4.83,0,7.31,3.44,7.31,10.2Zm9.09-.55c0-11.17-5.23-16.82-15.85-16.82a16,16,0,0,0-12.4,5.1,18.49,18.49,0,0,0-4.82,13.09c0,11.3,5.24,17,15.85,17,5.1,0,9.23-1.65,12.4-5.1a18.79,18.79,0,0,0,4.82-13.22Z"/><polygon class="cls-1" points="168.33 153.37 176.87 153.37 176.87 202.98 168.33 202.98 168.33 153.37 168.33 153.37"/><path class="cls-1" d="M183.9,187.4c0-12.54,5.79-18.74,17.5-18.74l6.89.83a68.55,68.55,0,0,1-.83,7.72l-6.06-1.11c-5.65,0-8.4,3.45-8.4,10.48,0,6.47,2.75,9.64,8.13,9.64a46,46,0,0,0,6.61-1.51l.55,7.44a26.48,26.48,0,0,1-9.09,1.65c-10.2,0-15.3-5.51-15.3-16.4Z"/><path class="cls-1" d="M219.59,165.08q-5.37,0-5.37-5.37c0-3.72,1.79-5.52,5.37-5.52S225,156,225,159.71s-1.8,5.37-5.38,5.37Zm-4.27,4.82h8.54V203h-8.54V169.9Z"/><path class="cls-1" d="M262.31,186.85V203h-8.68V181.75c0-4-1.38-5.92-4-5.92a6.48,6.48,0,0,0-5.37,3,14.28,14.28,0,0,0-2.34,8V203h-8.69V169.9h8.13l-.27,5.65c2.07-4.54,5.79-6.89,11-6.89s8.27,2.35,9.37,6.89c2.35-4.54,5.93-6.89,11-6.89,6.75,0,10.2,3.72,10.2,11.17V203H274V181.75c0-4-1.37-5.92-4-5.92-1.93,0-3.59,1-5.1,3a11.9,11.9,0,0,0-2.62,8Z"/><polygon class="cls-1" points="51.88 134.21 26.11 108.03 17.29 116.57 43.34 142.62 51.88 134.21 51.88 134.21"/><polygon class="cls-1" points="69.11 116.57 43.06 90.53 34.52 99.35 60.56 125.39 69.11 116.57 69.11 116.57"/></svg>