<svg id="Capa_1" data-name="Capa 1" xmlns="http://www.w3.org/2000/svg" viewBox="0 0 300 300"><defs><style>.cls-1,.cls-2{fill:#2c5d7c;}.cls-2{fill-rule:evenodd;}</style></defs><path class="cls-1" d="M117,129l6.89,56h67.29l-6.88-56Z"/><path class="cls-1" d="M136.24,107.66c4.29,4,4.88,10.38,1.32,14.17s-9.94,3.6-14.23-.43S118.45,111,122,107.22,132,103.62,136.24,107.66Z"/><path class="cls-2" d="M261.75,149.19C260.2,136.6,250.31,129,236.88,129H192.13L199,185h20.14l-1.37-11.2h21.31C255.84,173.82,263.52,163.37,261.75,149.19Zm-24.85,8.94-21.07,0-1.66-13.43,21.18,0c5,.07,7.52,2.86,7.94,6.71C243.56,153.9,242.43,158.13,236.9,158.13Z"/><path class="cls-1" d="M47,169.37,48.88,185h67.23l-2.21-17.9H82.56l-.28-2.24,28.88-20.16L109.23,129H42L44.19,147h31.4l.29,2.24Z"/></svg>