<svg id="Capa_1" data-name="Capa 1" xmlns="http://www.w3.org/2000/svg" viewBox="0 0 300 300"><defs><style>.cls-1{fill:#2c5d7c;fill-rule:evenodd;}</style></defs><path class="cls-1" d="M84.84,85.29a.88.88,0,0,0,.71.06.91.91,0,0,0,.53-.49c.11-.24,11.74-24.57,63.29-24.57S212.88,84.74,213,85a1,1,0,0,0,.18.26.9.9,0,0,0,1.06.16c.53-.28,13-6.9,17.44-13.26,0,0,0-.05,0-.07l0-.1a.9.9,0,0,0,.06-.22s0-.06,0-.09a.84.84,0,0,0-.05-.31v0l0,0a.69.69,0,0,0-.07-.15C231,70.11,214,46,149.37,46S68.92,70.37,68.27,71.41a.85.85,0,0,0,.07,1C74.17,79.58,84.4,85.06,84.84,85.29Zm-7-9.2a.9.9,0,0,0,1-.28c19.91-24.83,70-22.76,70.46-22.73h.09c.5,0,50.56-2.09,70.45,22.73a.9.9,0,0,0,1,.28l7.21-2.51c-4.33,4.34-11.52,8.49-13.9,9.81-2.57-4.54-16.83-24.91-64.81-24.91S87.44,78.7,84.89,83.26A66.63,66.63,0,0,1,72.24,74Z"/><path class="cls-1" d="M150,189c-.06,0-.17,0,0,0Z"/><path class="cls-1" d="M150,189h0C150.17,189,150.06,189,150,189Z"/><path class="cls-1" d="M233.86,73.52a.91.91,0,0,0-.89-.36.88.88,0,0,0-.79.26s-.66.67-1.85,1.75a.86.86,0,0,0-.3.27,102,102,0,0,1-27.35,17l-4.78,2c-9.61,4-19.9,8.29-28.9,14.88h0a57.36,57.36,0,0,0-19.12,23.44c-10-22.47-30.17-30.89-48.05-38.33l-4.78-2c-18.84-8-29.39-18.91-29.5-19a.84.84,0,0,0-1.39.1c-5.8,8.3-15.54,26.41-15.54,54.58,0,24.11,11.53,53.47,37.3,64.74,26.32,11.52,55.73,10.32,62.1,10.32s35.78,1.2,62.1-10.32c25.77-11.27,37.3-40.63,37.3-64.74C249.4,99.93,239.66,81.82,233.86,73.52Zm-131,33.34c14.64,4.72,23.06,9.48,23.14,9.53a.89.89,0,0,0,1.06-.12.9.9,0,0,0,.21-1c-2.12-4.59-6.08-8.68-9.66-11.73,12.82,6.55,24.84,15.61,31.39,31.91h0a1.07,1.07,0,0,0,.15.22l.05.07.07,0a.74.74,0,0,0,.22.14h0a.5.5,0,0,0,.12,0,.6.6,0,0,0,.43,0,.5.5,0,0,0,.12,0h0a.74.74,0,0,0,.22-.14l.07,0,0-.07a1.07,1.07,0,0,0,.15-.22h0a54.49,54.49,0,0,1,10.88-17.13,31.45,31.45,0,0,0-1.4,8.14.9.9,0,0,0,.69.88.89.89,0,0,0,1-.47,15.11,15.11,0,0,1,2.44-2.62.91.91,0,0,0,.3-.6c.42-5,4.74-11.71,5.5-12.85a87.28,87.28,0,0,1,11.85-7.2c-5,4-11.34,9.78-14.94,15.92a.9.9,0,0,0,1.42,1.08c.08-.08,8.05-8.07,27.47-13.45,4.5-1.25,16-5.31,29.79-13.36a.94.94,0,0,0,.41-.53l5.42-16.7q.16-.17.33-.3A77.84,77.84,0,0,1,229,92.9c-1.75,1.13-13.67,8.76-23.86,12.49-2.12.78-4.53,1.52-7.09,2.3-15,4.6-35.46,10.88-48.18,38-12.73-27.09-33.17-33.37-48.19-38-2.56-.78-5-1.52-7.09-2.3C84.39,101.66,72.47,94,70.72,92.9A46.72,46.72,0,0,1,67.3,77.5C72.16,96.87,93.17,103.72,102.88,106.86Zm-26.43,3.67c5.16,3.69,12.12,5.64,20.09,7.87,9.33,2.62,19.92,5.59,29.67,12.13,15,10.06,22.73,29.43,22.81,29.62,0,0,.68,2,1.67,0,.08-.19,7.86-19.57,22.81-29.62,9.75-6.54,20.33-9.51,29.67-12.13,8.11-2.27,15.18-4.25,20.36-8.05.91,7.19,4.28,42.17-14,60.12C191.85,187.86,161.81,189.19,150,189c-11.81.23-41.85-1.1-59.54-18.49C72.35,152.67,75.5,118.14,76.45,110.53Zm-5-15c4.11,2.57,13.87,8.41,22.46,11.56,2.16.79,4.6,1.54,7.19,2.33,15,4.59,35.57,10.89,47.88,38.75a.76.76,0,0,0,.08.11.57.57,0,0,0,.11.16,1.67,1.67,0,0,0,.16.12l.11.07h0l.2,0,.15,0,.14,0,.2,0h0l.11-.07a1.67,1.67,0,0,0,.16-.12.57.57,0,0,0,.11-.16.76.76,0,0,0,.08-.11C163,120.31,183.55,114,198.56,109.42c2.59-.79,5-1.54,7.19-2.33,8.59-3.15,18.35-9,22.46-11.56a94.67,94.67,0,0,1-5,12.77c-5,4-12.19,6-20.54,8.37-9.47,2.65-20.2,5.66-30.19,12.37-12.77,8.57-20.25,23.23-22.64,28.5-2.4-5.27-9.89-19.93-22.65-28.5-10-6.71-20.72-9.72-30.19-12.37-8.35-2.34-15.58-4.37-20.54-8.37A94.67,94.67,0,0,1,71.5,95.53Zm153.62,13.21a.43.43,0,0,0-.05-.12,94.1,94.1,0,0,0,4.38-11.06c9.19,27.4.66,51.14.57,51.38a.29.29,0,0,0,0,.09,29.22,29.22,0,0,1-14.56,17.27C230.79,144.71,225.38,110.32,225.12,108.74ZM68.89,93a97.8,97.8,0,0,0,5.94,16c-.58,3.78-5.27,37.82,10.68,58.56a36,36,0,0,1-16-13.2C69.36,154.17,54.13,127.29,68.89,93Zm142.49,98.16c-22.44,10.2-56.54,10.43-61.38,10.43s-36,.49-61.38-10.43c-23.85-10.27-35.08-36.81-36.13-59.6,5.4,16.14,13.46,23,14.95,24.22,6.36,18.88,22.64,32,47.13,38,10.13,2.48,24.4,3.25,32.45,3.44-.71,0,.51.08,3,.05s3.69,0,3-.05c8.05-.19,22.32-1,32.45-3.44,24.6-6,40.93-19.28,47.23-38.3.1-.31,10.44-32-1.43-63.32a.6.6,0,0,0-.14-.21,77.54,77.54,0,0,0,2.56-15.57c5.72,8.81,13.95,26,13.95,51.66C247.6,151.62,236.24,179.89,211.38,191.19Z"/><path class="cls-1" d="M224.35,224.46H204.62v7.93H220.3c4.5,0,3.87,3,3.87,3H211.65c-1.55,0-6.48-.2-8.86,3.65,0-.48,0-1,0-1.49,0-13.42-10.19-13.06-10.19-13.06H166.14L139.2,245.81V232.66c0-8.56-8.83-8.2-8.83-8.2H110.64v7.93h15.68c4.5,0,3.87,3,3.87,3H117.67c-1.53,0-6.32-.19-8.74,3.47v-3.38c0-11.71-10.64-11-10.64-11H65.14V254h10V233.2h7.12V254h9.55V233.2H95c4.69,0,4.09,3.87,4.09,3.87V254h9.85v-3.93c2.46,3.88,7.21,3.93,7.21,3.93h27.48l27-21.8v21.71h21.26c4.07,0,7.83-2.07,9.68-7.59,1.06,7.6,8.53,7.68,8.53,7.68h23.06V232.66C233.18,224.1,224.35,224.46,224.35,224.46ZM130,245.86h-10.5a1.91,1.91,0,0,1-2.16-1.94c0-1.8,1.75-1.94,2.34-1.94H130Zm59.17-.59h-9V232.75h9.05s4.33.36,4.33,5.9S191.6,245.27,189.21,245.27Zm34.74.59h-10.5a1.91,1.91,0,0,1-2.16-1.94c0-1.8,1.75-1.94,2.34-1.94H224Z"/><polygon class="cls-1" points="146.68 254.01 169.03 254.01 169.03 245.27 157.31 245.27 146.68 254.01"/><polygon class="cls-1" points="163.08 224.46 140.73 224.46 140.73 233.2 152.45 233.2 163.08 224.46"/><path class="cls-1" d="M239.76,224.53a4.12,4.12,0,1,0,4.12,4.12A4.13,4.13,0,0,0,239.76,224.53Zm0,7.52a3.4,3.4,0,1,1,3.4-3.4A3.41,3.41,0,0,1,239.76,232.05Z"/><path class="cls-1" d="M241.67,230.31l0-.86c0-.66-.3-.77-.57-.88a1.18,1.18,0,0,0,.66-1.14c0-1-.78-1.26-1.55-1.26H238v4.72h.64v-2h1.55c.76,0,.84.45.84.84a6,6,0,0,0,.11,1.19h.78v-.1C241.71,230.67,241.67,230.57,241.67,230.31Zm-1.57-2h-1.48v-1.61h1.59c.32,0,.85.06.85.79S240.57,228.32,240.1,228.32Z"/></svg>