<svg id="Capa_1" data-name="Capa 1" xmlns="http://www.w3.org/2000/svg" xmlns:xlink="http://www.w3.org/1999/xlink" viewBox="0 0 300 300"><defs><style>.cls-1{fill:#2c5d7c;}.cls-2{clip-path:url(#clip-path);}.cls-3{clip-path:url(#clip-path-2);}.cls-4{clip-path:url(#clip-path-3);}.cls-5{clip-path:url(#clip-path-4);}.cls-6{clip-path:url(#clip-path-5);}.cls-7{clip-path:url(#clip-path-6);}.cls-8{clip-path:url(#clip-path-7);}.cls-9{clip-path:url(#clip-path-8);}.cls-10{clip-path:url(#clip-path-9);}.cls-11{clip-path:url(#clip-path-10);}.cls-12{clip-path:url(#clip-path-11);}.cls-13{clip-path:url(#clip-path-12);}.cls-14{clip-path:url(#clip-path-13);}.cls-15{clip-path:url(#clip-path-14);}</style><clipPath id="clip-path"><path class="cls-1" d="M78.76,145.53a23.75,23.75,0,0,1,6.44,11.14H95.54a33.78,33.78,0,0,0-9.69-18.36l-7.09,7.22"/></clipPath><clipPath id="clip-path-2"><path class="cls-1" d="M61.77,128.61l.09,10.12h.2a23.87,23.87,0,0,1,16.85,7l7.15-7.16a33.94,33.94,0,0,0-24-9.91h-.29"/></clipPath><clipPath id="clip-path-3"><path class="cls-1" d="M37.88,138.75l7.22,7.1a23.67,23.67,0,0,1,17-7.12V128.61a33.79,33.79,0,0,0-24.18,10.14"/></clipPath><clipPath id="clip-path-4"><path class="cls-1" d="M28.15,162.52v.3l10.12-.09v-.21a23.68,23.68,0,0,1,7-16.82l-7.16-7.16a33.81,33.81,0,0,0-9.93,24"/></clipPath><clipPath id="clip-path-5"><path class="cls-1" d="M28.15,162.52a33.85,33.85,0,0,0,10.14,24.19l7.09-7.22a23.74,23.74,0,0,1-7.11-17H28.15"/></clipPath><clipPath id="clip-path-6"><path class="cls-1" d="M38.08,186.5a33.81,33.81,0,0,0,24,9.94h.3l-.09-10.13h-.21a23.72,23.72,0,0,1-16.82-7l-7.16,7.15"/></clipPath><clipPath id="clip-path-7"><path class="cls-1" d="M226.58,145.53A23.75,23.75,0,0,1,233,156.67h10.35a33.91,33.91,0,0,0-9.69-18.36l-7.1,7.22"/></clipPath><clipPath id="clip-path-8"><path class="cls-1" d="M209.59,128.61l.08,10.12h.21a23.87,23.87,0,0,1,16.85,7l7.15-7.16a33.94,33.94,0,0,0-24-9.91h-.29"/></clipPath><clipPath id="clip-path-9"><path class="cls-1" d="M185.7,138.75l7.21,7.1a23.71,23.71,0,0,1,17-7.12V128.61a33.79,33.79,0,0,0-24.18,10.14"/></clipPath><clipPath id="clip-path-10"><path class="cls-1" d="M176,162.52v.3l10.13-.09v-.21a23.67,23.67,0,0,1,7-16.82l-7.16-7.16a33.85,33.85,0,0,0-9.93,24"/></clipPath><clipPath id="clip-path-11"><path class="cls-1" d="M176,162.52a33.85,33.85,0,0,0,10.14,24.19l7.1-7.22a23.7,23.7,0,0,1-7.11-17H176"/></clipPath><clipPath id="clip-path-12"><path class="cls-1" d="M185.9,186.5a33.81,33.81,0,0,0,24,9.94h.3l-.09-10.13h-.21a23.75,23.75,0,0,1-16.82-7l-7.16,7.15"/></clipPath><clipPath id="clip-path-13"><polyline class="cls-1" points="253.48 173.76 263.61 173.76 263.61 143.16 253.48 143.16 253.48 173.76"/></clipPath><clipPath id="clip-path-14"><path class="cls-1" d="M115.78,137.86v20.55c1.53-8.12,8.73-19.67,22.53-19.67l.76,0V128.63h-.75a32,32,0,0,0-22.54,9.24"/></clipPath></defs><path class="cls-1" d="M78.76,145.53a23.75,23.75,0,0,1,6.44,11.14H95.54a33.78,33.78,0,0,0-9.69-18.36l-7.09,7.22"/><g class="cls-2"><rect class="cls-1" x="75.46" y="135.47" width="23.38" height="24.05" transform="translate(-58.49 57.28) rotate(-27.65)"/></g><path class="cls-1" d="M61.77,128.61l.09,10.12h.2a23.87,23.87,0,0,1,16.85,7l7.15-7.16a33.94,33.94,0,0,0-24-9.91h-.29"/><g class="cls-3"><rect class="cls-1" x="61.28" y="122.61" width="25.28" height="29.06" transform="translate(-81.27 150.88) rotate(-66.73)"/></g><path class="cls-1" d="M37.88,138.75l7.22,7.1a23.67,23.67,0,0,1,17-7.12V128.61a33.79,33.79,0,0,0-24.18,10.14"/><g class="cls-4"><rect class="cls-1" x="35.37" y="124.34" width="29.18" height="25.78" transform="translate(-52.88 33.54) rotate(-24.76)"/></g><path class="cls-1" d="M28.15,162.52v.3l10.12-.09v-.21a23.68,23.68,0,0,1,7-16.82l-7.16-7.16a33.81,33.81,0,0,0-9.93,24"/><g class="cls-5"><rect class="cls-1" x="22.18" y="138.08" width="29.02" height="25.21" transform="translate(-116.36 125.68) rotate(-67.04)"/></g><path class="cls-1" d="M28.15,162.52a33.85,33.85,0,0,0,10.14,24.19l7.09-7.22a23.74,23.74,0,0,1-7.11-17H28.15"/><g class="cls-6"><rect class="cls-1" x="24.14" y="160.13" width="25.27" height="28.98" transform="translate(-64.83 27.91) rotate(-22.81)"/></g><path class="cls-1" d="M38.08,186.5a33.81,33.81,0,0,0,24,9.94h.3l-.09-10.13h-.21a23.72,23.72,0,0,1-16.82-7l-7.16,7.15"/><g class="cls-7"><path class="cls-1" d="M45.24,179.35l-7.16,7.15a33.81,33.81,0,0,0,24,9.94h0V186.31a23.72,23.72,0,0,1-16.82-7"/></g><path class="cls-1" d="M62.06,186.31v10.13A33.86,33.86,0,0,0,89,183.17l-8-6.16a23.78,23.78,0,0,1-18.88,9.3"/><path class="cls-1" d="M226.58,145.53A23.75,23.75,0,0,1,233,156.67h10.35a33.91,33.91,0,0,0-9.69-18.36l-7.1,7.22"/><g class="cls-8"><rect class="cls-1" x="223.1" y="135.34" width="23.74" height="24.31" transform="translate(-42.3 138.17) rotate(-30.19)"/></g><path class="cls-1" d="M209.59,128.61l.08,10.12h.21a23.87,23.87,0,0,1,16.85,7l7.15-7.16a33.94,33.94,0,0,0-24-9.91h-.29"/><g class="cls-9"><rect class="cls-1" x="209.21" y="122.66" width="25.06" height="28.97" transform="translate(10.28 289.66) rotate(-67.54)"/></g><path class="cls-1" d="M185.7,138.75l7.21,7.1a23.71,23.71,0,0,1,17-7.12V128.61a33.79,33.79,0,0,0-24.18,10.14"/><g class="cls-10"><rect class="cls-1" x="183.28" y="124.56" width="29.01" height="25.34" transform="translate(-37.95 88.44) rotate(-23.06)"/></g><path class="cls-1" d="M176,162.52v.3l10.13-.09v-.21a23.67,23.67,0,0,1,7-16.82l-7.16-7.16a33.85,33.85,0,0,0-9.93,24"/><g class="cls-11"><rect class="cls-1" x="170.03" y="138.12" width="28.98" height="25.11" transform="translate(-25.56 263.01) rotate(-67.37)"/></g><path class="cls-1" d="M176,162.52a33.85,33.85,0,0,0,10.14,24.19l7.1-7.22a23.7,23.7,0,0,1-7.11-17H176"/><g class="cls-12"><rect class="cls-1" x="171.9" y="160.1" width="25.38" height="29.03" transform="translate(-53.89 86.92) rotate(-23.22)"/></g><path class="cls-1" d="M185.9,186.5a33.81,33.81,0,0,0,24,9.94h.3l-.09-10.13h-.21a23.75,23.75,0,0,1-16.82-7l-7.16,7.15"/><g class="cls-13"><path class="cls-1" d="M193.06,179.35l-7.16,7.15a33.81,33.81,0,0,0,24,9.94h0V186.31a23.75,23.75,0,0,1-16.82-7"/></g><path class="cls-1" d="M209.88,186.31v10.13a33.86,33.86,0,0,0,26.91-13.27l-8-6.16a23.78,23.78,0,0,1-18.88,9.3"/><polyline class="cls-1" points="253.48 173.76 263.61 173.76 263.61 143.16 253.48 143.16 253.48 173.76"/><g class="cls-14"><path class="cls-1" d="M263.61,143.16H253.48v30.6h0v-.16h10.13V143.16"/></g><path class="cls-1" d="M253.48,173.6c0,10.68,5,17.12,13.62,22.79l5.78-8.3c-5.91-4-9.27-7.18-9.27-14.49H253.48"/><path class="cls-1" d="M115.78,137.86v20.55c1.53-8.12,8.73-19.67,22.53-19.67l.76,0V128.63h-.75a32,32,0,0,0-22.54,9.24"/><g class="cls-15"><path class="cls-1" d="M138.32,128.62a32,32,0,0,0-22.54,9.24v20.55c1.53-8.12,8.73-19.67,22.53-19.67h.31V128.62h-.3"/></g><path class="cls-1" d="M138.62,128.62v10.12a17.86,17.86,0,0,1,17.71,17.91V160h10.12v-3.33a28,28,0,0,0-27.83-28h0"/><rect class="cls-1" x="105.66" y="131.37" width="10.12" height="35.43"/><rect class="cls-1" x="253.48" y="107.74" width="10.12" height="35.43"/><rect class="cls-1" x="156.33" y="159.98" width="10.12" height="35.42"/><rect class="cls-1" x="60.12" y="156.67" width="35.42" height="10.12"/><rect class="cls-1" x="207.94" y="156.67" width="35.43" height="10.12"/></svg>