<svg id="Capa_1" data-name="Capa 1" xmlns="http://www.w3.org/2000/svg" viewBox="0 0 300 300"><defs><style>.cls-1{fill:#2c5d7c;}</style></defs><path class="cls-1" d="M281.91,134.56a4.56,4.56,0,1,1,1.33-3.23A4.39,4.39,0,0,1,281.91,134.56Zm-6-6a4,4,0,0,0,0,5.55,3.88,3.88,0,0,0,5.53,0,3.95,3.95,0,0,0,0-5.55,3.9,3.9,0,0,0-5.53,0Zm2.67.25A3.85,3.85,0,0,1,280,129a1.25,1.25,0,0,1,.77,1.27,1.08,1.08,0,0,1-.49,1,1.88,1.88,0,0,1-.72.25,1.19,1.19,0,0,1,.86.49,1.36,1.36,0,0,1,.27.77v.36c0,.12,0,.25,0,.38a.61.61,0,0,0,.05.26l0,.06h-.83a.09.09,0,0,1,0,0,.42.42,0,0,1,0-.06v-.55a1.24,1.24,0,0,0-.47-1.15,2.23,2.23,0,0,0-1-.16h-.69v2h-.88v-5Zm.95.79a2.2,2.2,0,0,0-1.06-.19h-.75v1.81h.79a2.3,2.3,0,0,0,.84-.11.9.9,0,0,0,.18-1.51Z"/><path class="cls-1" d="M67.82,126.78v32.41c0,5.73-3.22,8.52-9.85,8.52-6.28,0-9.73-2.83-9.73-8v-33h-6v33c0,5.14-3.46,8-9.74,8-6.62,0-9.84-2.79-9.84-8.52V126.78H16.76V160c0,8.25,6.1,13.59,15.52,13.59,6.29,0,10.09-1.56,13-5.3,2.9,3.74,6.7,5.3,13,5.3,9.43,0,15.52-5.34,15.52-13.59V126.78Z"/><path class="cls-1" d="M187.91,126.45h-7.7c-11,0-16,7.27-16,14v19c0,6.76,5,14,15.91,14H188c10.92,0,15.9-7.27,15.9-14v-19C203.87,133.72,198.88,126.45,187.91,126.45Zm10,32.3c0,5.69-3.73,9-10.23,9h-7.26c-6.6,0-10.23-3.18-10.23-9v-17.5c0-5.7,3.73-9,10.23-9h7.26c6.5,0,10.23,3.26,10.23,9Z"/><path class="cls-1" d="M239.4,131.86c-2.89-3.74-6.7-5.29-13-5.29-9.43,0-15.51,5.33-15.51,13.58v33.18h5.94V140.92c0-5.73,3.22-8.52,9.84-8.52,6.29,0,9.74,2.83,9.74,8v33h5.94v-33c0-5.14,3.46-8,9.74-8,6.63,0,9.85,2.79,9.85,8.52v32.41h5.94V140.15c0-8.25-6.09-13.58-15.51-13.58C246.1,126.57,242.3,128.12,239.4,131.86Z"/><path class="cls-1" d="M141.21,126.45c-10.93,0-15.9,7.27-15.9,14v19c0,6.76,5,14,15.9,14H148c5.57,0,9.2-.81,12.12-2.71l.39-.25-3.42-5-.35.21c-2.18,1.32-4.94,1.86-9.51,1.86h-5.72c-6.59,0-10.23-3.18-10.23-9v-17.5c0-5.78,3.64-9,10.23-9h5.72c4.56,0,7.32.54,9.51,1.86l.36.21,3.4-5-.38-.25c-2.92-1.9-6.55-2.71-12.12-2.71Z"/><path class="cls-1" d="M97.19,126.45c-5.26,0-7.75.57-10.5,1.63l-.47.18,3,5.3.36-.15c2-.83,4.23-1.12,8.42-1.12h4.45c6.51,0,10.23,3.26,10.23,9v17.5c0,5.69-3.72,9-10.23,9H95.16c-6.66,0-9.9-2.7-9.9-8.25s3.24-8.19,9.9-8.19h10.13v-5.84H94.88c-9.89,0-15.56,5.14-15.56,14.09,0,8.65,6,14,15.56,14h7.82c10.92,0,15.9-7.27,15.9-14v-19c0-6.76-5-14-15.9-14Z"/></svg>