<svg id="Capa_1" data-name="Capa 1" xmlns="http://www.w3.org/2000/svg" viewBox="0 0 300 300"><defs><style>.cls-1,.cls-2{fill:#2c5d7c;}.cls-1{fill-rule:evenodd;}</style></defs><path class="cls-1" d="M73.86,154.06H90.23a1.2,1.2,0,0,1,1.2,1.24v2.6a1.23,1.23,0,0,1-1.2,1.17H73.86Zm0-5.07H90.23a1.23,1.23,0,0,0,1.2-1.17v-2.6a1.2,1.2,0,0,0-1.2-1.24H73.86Zm23.25,7.56a7.52,7.52,0,0,1-7.52,7.52H68.82V139H89.59a7.52,7.52,0,0,1,7.52,7.52,7.89,7.89,0,0,1-1.84,5.06A7.5,7.5,0,0,1,97.11,156.55Z"/><path class="cls-2" d="M110,139h6.67l12.7,25h-5.84l-3.77-7.4H106.92l-3.74,7.4H97.33Zm7.19,12.55L113.35,144l-3.85,7.56Z"/><path class="cls-1" d="M175.75,164.07a12.52,12.52,0,0,1,0-25h8a12.52,12.52,0,0,1,0,25Zm7.74-5.57a7,7,0,0,0,0-13.91H176a7,7,0,1,0,0,13.91Z"/><path class="cls-1" d="M221.91,147.9a1.19,1.19,0,0,1-1.19,1.19h-16.4v-5h16.4a1.19,1.19,0,0,1,1.19,1.19Zm-17.56,16.18v-10h10.2l6.52,10h6.47l-6.55-10a7.51,7.51,0,0,0-.82-15H199.31v25Z"/><polygon class="cls-2" points="132 164.07 137.03 164.07 137.03 147.82 155.99 164.07 161.03 164.07 161.03 139.04 155.99 139.04 155.99 155.29 137.03 139.04 132 139.04 132 164.07"/><polygon class="cls-2" points="230.84 144.16 240.65 144.16 240.65 164.07 246.49 164.07 246.49 144.16 256.17 144.16 256.17 139.13 230.84 139.13 230.84 144.16"/><polygon class="cls-2" points="259.49 139.04 284.82 139.04 284.82 144.08 264.52 144.08 264.52 149.04 280.94 149.04 280.94 154.07 264.52 154.07 264.52 159.03 284.82 159.03 284.82 164.07 259.49 164.07 259.49 139.04"/><path class="cls-2" d="M39.75,149.69l3.88-10.64v10.64c.56,0,1.14,0,1.72,0,10.65,0,19.29-2.84,19.29-6.68s-8.64-6.95-19.29-6.95S26.07,139.2,26.07,143c0,3.13,5.78,5.78,13.68,6.65Z"/><path class="cls-2" d="M39.46,150.49C29.22,150.65,21,153.7,21,157.44c0,3.1,5.69,5.74,13.5,6.63l4.94-13.58Z"/><path class="cls-2" d="M43.65,150.48v13.58c9.06-.57,16-3.2,16-6.62s-6.89-6.39-16-7Z"/><path class="cls-2" d="M25.79,169.39H22.35v1.36h3.16v1.14H22.35v1.68h3.59v1.14H21v-6.47h4.76Z"/><path class="cls-2" d="M33.51,173.54h3.22v1.17H32.16v-6.47h1.35Z"/><path class="cls-2" d="M50.69,168.24h3.14c1.59,0,2,1,2,1.66a1.28,1.28,0,0,1-.8,1.32,1.5,1.5,0,0,1,1,1.57,1.9,1.9,0,0,1-.55,1.34c-.37.36-.73.58-2,.58H50.69Zm1.3,2.53h1.58c.53,0,1-.2,1-.72s-.38-.69-1-.69H52Zm0,2.83h1.65c.66,0,1-.29,1-.95s-.49-.78-1-.78H52Z"/><path class="cls-2" d="M63.37,174.71H62l2.31-6.47h1.56l2.28,6.47H66.63l-.42-1.33H63.82Zm.82-2.45h1.65L65,169.7h0Z"/><path class="cls-2" d="M78.17,168.24h1.26v6.47H78.08l-2.64-4.61h0v4.61H74.16v-6.47h1.42l2.57,4.51h0Z"/><path class="cls-2" d="M90.12,170.36a1.32,1.32,0,0,0-1.43-1.12c-.65,0-1.61.43-1.61,2.26,0,1.17.46,2.21,1.61,2.21a1.38,1.38,0,0,0,1.43-1.21h1.35a2.7,2.7,0,0,1-2.81,2.39c-1.72,0-3-1.17-3-3.4s1.31-3.42,3-3.42a2.57,2.57,0,0,1,2.79,2.29Z"/><path class="cls-2" d="M100.58,168.07c.86,0,3.11.37,3.11,3.41s-2.25,3.41-3.11,3.41-3.11-.37-3.11-3.41S99.72,168.07,100.58,168.07Zm0,5.67c.73,0,1.76-.45,1.76-2.26s-1-2.27-1.76-2.27-1.76.45-1.76,2.27S99.85,173.74,100.58,173.74Z"/><path class="cls-2" d="M119.15,174.71h-1.36v-6.47h4.61v1.15h-3.25v1.46H122V172h-2.85Z"/><path class="cls-2" d="M133.74,172.45c0,1.7-1,2.44-2.66,2.44a2.78,2.78,0,0,1-2.05-.79,2.39,2.39,0,0,1-.51-1.57v-4.29h1.38v4.2a1.14,1.14,0,0,0,1.16,1.3c.93,0,1.3-.45,1.3-1.24v-4.26h1.38Z"/><path class="cls-2" d="M145.09,169.39h-3.44v1.36h3.16v1.14h-3.16v1.68h3.59v1.14h-4.91v-6.47h4.76Z"/><path class="cls-2" d="M151.6,168.24h3.27a1.83,1.83,0,0,1,2,1.83,1.54,1.54,0,0,1-1,1.54c.53.24.82.44.82,1.64,0,.95,0,1.18.29,1.29v.17h-1.5a4.3,4.3,0,0,1-.14-1.3c0-.89-.06-1.23-1.06-1.23h-1.4v2.53H151.6Zm2.91,2.85c.7,0,1.05-.24,1.05-.88,0-.35-.16-.85-.95-.85h-1.69v1.73Z"/><path class="cls-2" d="M166.12,174.71h-1.36v-5.32h-1.95v-1.15h5.26v1.15h-1.95Z"/><path class="cls-2" d="M178.89,169.39h-3.43v1.36h3.16v1.14h-3.16v1.68h3.59v1.14h-4.92v-6.47h4.76Z"/><path class="cls-2" d="M193.17,168.24H196c2.18,0,2.63,1.86,2.63,3.08,0,1.39-.55,3.39-2.69,3.39h-2.8Zm1.32,5.36h1.32c1.1,0,1.47-1.11,1.47-2.18,0-1.91-.91-2.06-1.49-2.06h-1.3Z"/><path class="cls-2" d="M209.7,169.39h-3.44v1.36h3.16v1.14h-3.16v1.68h3.59v1.14h-4.91v-6.47h4.76Z"/><path class="cls-2" d="M230.18,174.71h-1.26V169.3h0l-1.2,5.41h-1.33l-1.18-5.41h0v5.41h-1.26v-6.47h2l1.18,5.1h0l1.16-5.1h2Z"/><path class="cls-2" d="M241.5,169.39h-3.43v1.36h3.15v1.14h-3.15v1.68h3.58v1.14h-4.91v-6.47h4.76Z"/><path class="cls-2" d="M253.21,174.71h-1.65l-1.22-2.21L249,174.71h-1.58l2.09-3.31-2-3.16h1.61l1.16,2.09,1.18-2.09h1.56l-2,3.11Z"/><path class="cls-2" d="M260.53,174.71h-1.35v-6.47h1.35Z"/><path class="cls-2" d="M271.18,170.36a1.32,1.32,0,0,0-1.44-1.12c-.65,0-1.6.43-1.6,2.26,0,1.17.46,2.21,1.6,2.21a1.39,1.39,0,0,0,1.44-1.21h1.35a2.7,2.7,0,0,1-2.81,2.39c-1.73,0-3-1.17-3-3.4s1.31-3.42,3-3.42a2.58,2.58,0,0,1,2.8,2.29Z"/><path class="cls-2" d="M281.71,168.07c.86,0,3.11.37,3.11,3.41s-2.25,3.41-3.11,3.41-3.11-.37-3.11-3.41S280.86,168.07,281.71,168.07Zm0,5.67c.73,0,1.76-.45,1.76-2.26s-1-2.27-1.76-2.27-1.76.45-1.76,2.27S281,173.74,281.71,173.74Z"/></svg>