<svg width="964" height="281" viewBox="0 0 964 281" fill="none" xmlns="http://www.w3.org/2000/svg">
<g clip-path="url(#clip0_321_35)">
<path d="M723.397 281.852C716.418 307.897 731.861 334.663 757.889 341.638C783.917 348.612 810.674 333.152 817.652 307.108C824.631 281.064 809.188 254.297 783.16 247.323C757.132 240.348 730.375 255.808 723.397 281.852Z" fill="url(#paint0_linear_321_35)"/>
<path d="M718.366 274.302C711.387 300.346 726.83 327.113 752.857 334.087C778.885 341.061 805.642 325.602 812.621 299.558C819.6 273.513 804.157 246.746 778.129 239.772C752.101 232.798 725.344 248.258 718.366 274.302Z" fill="url(#paint1_linear_321_35)"/>
<path d="M713.108 266.828C706.13 292.872 721.572 319.639 747.6 326.613C773.628 333.588 800.385 318.128 807.364 292.084C814.342 266.039 798.9 239.273 772.872 232.298C746.844 225.324 720.087 240.784 713.108 266.828Z" fill="url(#paint2_linear_321_35)"/>
<path d="M707.672 259.512C700.693 285.556 716.136 312.323 742.164 319.297C768.192 326.271 794.949 310.812 801.927 284.767C808.906 258.723 793.463 231.956 767.435 224.982C741.407 218.008 714.65 233.467 707.672 259.512Z" fill="url(#paint3_linear_321_35)"/>
<path d="M702.024 252.344C695.041 278.406 710.494 305.191 736.539 312.17C762.585 319.149 789.36 303.679 796.343 277.617C803.327 251.555 787.874 224.77 761.828 217.791C735.782 210.812 709.007 226.282 702.024 252.344Z" fill="url(#paint4_linear_321_35)"/>
<path d="M696.197 245.335C689.214 271.397 704.667 298.182 730.712 305.161C756.758 312.14 783.533 296.67 790.517 270.608C797.5 244.546 782.047 217.761 756.001 210.782C729.956 203.803 703.18 219.273 696.197 245.335Z" fill="url(#paint5_linear_321_35)"/>
<path d="M690.168 238.442C683.184 264.504 698.637 291.289 724.683 298.268C750.728 305.247 777.504 289.777 784.487 263.715C791.47 237.653 776.017 210.868 749.972 203.889C723.926 196.91 697.151 212.38 690.168 238.442Z" fill="url(#paint6_linear_321_35)"/>
<path d="M683.991 231.716C677.007 257.778 692.461 284.563 718.506 291.542C744.552 298.521 771.327 283.051 778.31 256.989C785.294 230.927 769.84 204.142 743.795 197.163C717.749 190.184 690.974 205.654 683.991 231.716Z" fill="url(#paint7_linear_321_35)"/>
<path d="M677.594 225.17C670.611 251.232 686.064 278.017 712.11 284.996C738.155 291.975 764.93 276.505 771.914 250.443C778.897 224.381 763.444 197.596 737.398 190.617C711.353 183.638 684.578 199.108 677.594 225.17Z" fill="url(#paint8_linear_321_35)"/>
<path d="M671.019 218.782C664.035 244.844 679.488 271.629 705.534 278.608C731.58 285.587 758.355 270.117 765.338 244.055C772.321 217.993 756.868 191.208 730.823 184.229C704.777 177.25 678.002 192.72 671.019 218.782Z" fill="url(#paint9_linear_321_35)"/>
<path d="M664.264 212.552C657.28 238.614 672.733 265.399 698.779 272.378C724.825 279.357 751.6 263.887 758.583 237.825C765.566 211.763 750.113 184.978 724.068 177.999C698.022 171.02 671.247 186.49 664.264 212.552Z" fill="url(#paint10_linear_321_35)"/>
<path d="M657.362 206.488C650.378 232.55 665.831 259.335 691.877 266.314C717.923 273.292 744.698 257.823 751.681 231.761C758.664 205.698 743.211 178.914 717.166 171.935C691.12 164.956 664.345 180.426 657.362 206.488Z" fill="url(#paint11_linear_321_35)"/>
<path d="M650.208 200.596C643.22 226.675 658.683 253.479 684.747 260.462C710.81 267.446 737.603 251.965 744.591 225.886C751.579 199.806 736.116 173.003 710.052 166.019C683.989 159.036 657.196 174.516 650.208 200.596Z" fill="url(#paint12_linear_321_35)"/>
<path d="M642.962 194.919C635.974 220.999 651.438 247.802 677.501 254.786C703.564 261.769 730.358 246.289 737.346 220.209C744.334 194.13 728.87 167.326 702.807 160.343C676.744 153.359 649.95 168.84 642.962 194.919Z" fill="url(#paint13_linear_321_35)"/>
<path d="M635.505 189.392C628.517 215.471 643.981 242.275 670.044 249.258C696.107 256.242 722.901 240.761 729.889 214.682C736.877 188.602 721.413 161.799 695.35 154.815C669.287 147.832 642.494 163.312 635.505 189.392Z" fill="url(#paint14_linear_321_35)"/>
<path d="M627.925 184.071C620.937 210.151 636.4 236.954 662.463 243.937C688.527 250.921 715.32 235.441 722.308 209.361C729.296 183.281 713.832 156.478 687.769 149.494C661.706 142.511 634.913 157.991 627.925 184.071Z" fill="url(#paint15_linear_321_35)"/>
<path d="M620.156 178.94C613.168 205.019 628.632 231.822 654.695 238.806C680.758 245.79 707.551 230.309 714.539 204.23C721.527 178.15 706.064 151.347 680.001 144.363C653.937 137.379 627.144 152.86 620.156 178.94Z" fill="url(#paint16_linear_321_35)"/>
<path d="M612.232 174.006C605.244 200.086 620.707 226.889 646.77 233.873C672.834 240.856 699.627 225.376 706.615 199.296C713.603 173.217 698.14 146.414 672.076 139.43C646.013 132.446 619.22 147.927 612.232 174.006Z" fill="url(#paint17_linear_321_35)"/>
<path d="M604.111 169.295C597.123 195.374 612.587 222.178 638.65 229.161C664.713 236.145 691.506 220.664 698.495 194.585C705.483 168.505 690.019 141.702 663.956 134.718C637.893 127.735 611.099 143.215 604.111 169.295Z" fill="url(#paint18_linear_321_35)"/>
<path d="M595.875 164.758C588.887 190.838 604.351 217.641 630.414 224.624C656.477 231.608 683.271 216.128 690.259 190.048C697.247 163.968 681.783 137.165 655.72 130.181C629.657 123.198 602.863 138.678 595.875 164.758Z" fill="url(#paint19_linear_321_35)"/>
<path d="M587.443 160.442C580.45 186.54 595.924 213.361 622.005 220.349C648.086 227.338 674.897 211.847 681.89 185.75C688.883 159.652 673.409 132.831 647.328 125.843C621.247 118.854 594.436 134.345 587.443 160.442Z" fill="url(#paint20_linear_321_35)"/>
<path d="M578.91 156.374C571.917 182.472 587.391 209.293 613.472 216.281C639.553 223.27 666.365 207.779 673.357 181.681C680.35 155.584 664.876 128.763 638.795 121.774C612.714 114.786 585.903 130.277 578.91 156.374Z" fill="url(#paint21_linear_321_35)"/>
<path d="M570.222 152.504C563.229 178.602 578.703 205.423 604.784 212.411C630.865 219.4 657.676 203.909 664.669 177.811C671.662 151.714 656.188 124.893 630.107 117.904C604.026 110.916 577.214 126.407 570.222 152.504Z" fill="url(#paint22_linear_321_35)"/>
<path d="M561.369 148.864C554.376 174.961 569.85 201.783 595.931 208.771C622.012 215.759 648.823 200.268 655.816 174.171C662.809 148.074 647.335 121.253 621.254 114.264C595.173 107.276 568.361 122.767 561.369 148.864Z" fill="url(#paint23_linear_321_35)"/>
<path d="M552.383 145.463C545.39 171.56 560.864 198.381 586.945 205.37C613.026 212.358 639.838 196.867 646.83 170.77C653.823 144.672 638.349 117.851 612.268 110.863C586.187 103.874 559.376 119.365 552.383 145.463Z" fill="url(#paint24_linear_321_35)"/>
<path d="M543.233 142.292C536.241 168.389 551.715 195.21 577.796 202.199C603.876 209.187 630.688 193.696 637.681 167.599C644.673 141.501 629.199 114.68 603.119 107.692C577.038 100.703 550.226 116.194 543.233 142.292Z" fill="url(#paint25_linear_321_35)"/>
<path d="M533.992 139.336C526.999 165.433 542.473 192.254 568.554 199.242C594.635 206.231 621.446 190.74 628.439 164.643C635.432 138.545 619.958 111.724 593.877 104.736C567.796 97.7473 540.984 113.238 533.992 139.336Z" fill="url(#paint26_linear_321_35)"/>
<path d="M524.577 136.641C517.584 162.739 533.058 189.56 559.139 196.548C585.22 203.537 612.032 188.046 619.024 161.948C626.017 135.851 610.543 109.03 584.462 102.042C558.381 95.0532 531.57 110.544 524.577 136.641Z" fill="url(#paint27_linear_321_35)"/>
<path d="M515.053 134.227C508.056 160.342 523.54 187.181 549.639 194.174C575.737 201.167 602.567 185.666 609.565 159.551C616.562 133.436 601.078 106.596 574.979 99.6033C548.881 92.6102 522.051 108.112 515.053 134.227Z" fill="url(#paint28_linear_321_35)"/>
<path d="M505.534 132.053C498.536 158.168 514.02 185.007 540.119 192C566.218 198.993 593.047 183.492 600.045 157.377C607.042 131.262 591.558 104.423 565.459 97.4295C539.361 90.4364 512.531 105.938 505.534 132.053Z" fill="url(#paint29_linear_321_35)"/>
<path d="M496.033 130.192C489.035 156.307 504.519 183.147 530.618 190.14C556.717 197.133 583.546 181.632 590.544 155.517C597.541 129.402 582.057 102.562 555.958 95.5691C529.86 88.576 503.03 104.077 496.033 130.192Z" fill="url(#paint30_linear_321_35)"/>
<path d="M486.535 128.573C479.538 154.688 495.022 181.527 521.121 188.52C547.219 195.513 574.049 180.012 581.047 153.897C588.044 127.782 572.56 100.943 546.461 93.9495C520.363 86.9564 493.533 102.458 486.535 128.573Z" fill="url(#paint31_linear_321_35)"/>
<path d="M477.025 127.258C470.028 153.373 485.512 180.212 511.611 187.206C537.709 194.199 564.539 178.697 571.536 152.582C578.534 126.467 563.049 99.6279 536.951 92.6348C510.852 85.6417 484.023 101.143 477.025 127.258Z" fill="url(#paint32_linear_321_35)"/>
<path d="M467.551 126.193C460.553 152.308 476.038 179.147 502.136 186.14C528.235 193.133 555.064 177.632 562.062 151.517C569.059 125.402 553.575 98.5627 527.476 91.5696C501.378 84.5765 474.548 100.078 467.551 126.193Z" fill="url(#paint33_linear_321_35)"/>
<path d="M458.072 125.401C451.074 151.516 466.559 178.355 492.657 185.348C518.756 192.341 545.585 176.84 552.583 150.725C559.58 124.61 544.096 97.7704 517.997 90.7774C491.899 83.7843 465.069 99.2857 458.072 125.401Z" fill="url(#paint34_linear_321_35)"/>
<path d="M448.66 124.866C441.663 150.981 457.147 177.821 483.246 184.814C509.344 191.807 536.174 176.305 543.172 150.19C550.169 124.075 534.685 97.236 508.586 90.2429C482.488 83.2499 455.658 98.7512 448.66 124.866Z" fill="url(#paint35_linear_321_35)"/>
<path d="M439.181 124.588C432.179 150.721 447.673 177.578 473.79 184.576C499.906 191.574 526.754 176.062 533.756 149.929C540.758 123.797 525.263 96.939 499.147 89.9412C473.031 82.9434 446.183 98.4552 439.181 124.588Z" fill="url(#paint36_linear_321_35)"/>
<path d="M429.801 124.576C422.799 150.709 438.293 177.566 464.41 184.564C490.526 191.562 517.374 176.05 524.376 149.917C531.378 123.785 515.883 96.927 489.767 89.9292C463.651 82.9314 436.803 98.4432 429.801 124.576Z" fill="url(#paint37_linear_321_35)"/>
<path d="M420.448 124.845C413.446 150.978 428.941 177.836 455.057 184.833C481.173 191.831 508.021 176.319 515.023 150.187C522.025 124.054 506.531 97.1965 480.414 90.1987C454.298 83.2009 427.45 98.7128 420.448 124.845Z" fill="url(#paint38_linear_321_35)"/>
<path d="M411.14 125.332C404.138 151.465 419.633 178.323 445.749 185.321C471.865 192.318 498.713 176.806 505.715 150.674C512.717 124.541 497.222 97.6836 471.106 90.6858C444.99 83.688 418.142 99.1998 411.14 125.332Z" fill="url(#paint39_linear_321_35)"/>
<path d="M401.859 126.101C394.857 152.234 410.352 179.091 436.468 186.089C462.584 193.087 489.432 177.575 496.434 151.442C503.436 125.31 487.941 98.4522 461.825 91.4543C435.709 84.4565 408.861 99.9684 401.859 126.101Z" fill="url(#paint40_linear_321_35)"/>
<path d="M392.655 127.096C385.653 153.228 401.147 180.086 427.264 187.084C453.38 194.081 480.228 178.57 487.23 152.437C494.232 126.304 478.737 99.4468 452.621 92.449C426.505 85.4512 399.657 100.963 392.655 127.096Z" fill="url(#paint41_linear_321_35)"/>
<path d="M383.486 128.34C376.484 154.472 391.979 181.33 418.095 188.328C444.211 195.326 471.059 179.814 478.061 153.681C485.063 127.548 469.568 100.691 443.452 93.6931C417.336 86.6953 390.488 102.207 383.486 128.34Z" fill="url(#paint42_linear_321_35)"/>
<path d="M374.353 129.833C367.351 155.966 382.846 182.824 408.962 189.821C435.078 196.819 461.926 181.307 468.928 155.175C475.931 129.042 460.436 102.185 434.32 95.1868C408.203 88.189 381.356 103.701 374.353 129.833Z" fill="url(#paint43_linear_321_35)"/>
<path d="M365.289 131.585C358.282 157.735 373.787 184.611 399.921 191.613C426.055 198.616 452.921 183.094 459.928 156.943C466.934 130.793 451.429 103.917 425.295 96.9148C399.161 89.9122 372.296 105.435 365.289 131.585Z" fill="url(#paint44_linear_321_35)"/>
<path d="M356.3 133.563C349.293 159.713 364.799 186.589 390.932 193.591C417.066 200.594 443.932 185.071 450.939 158.921C457.946 132.771 442.441 105.895 416.307 98.8926C390.173 91.89 363.307 107.412 356.3 133.563Z" fill="url(#paint45_linear_321_35)"/>
<path d="M347.388 135.767C340.381 161.917 355.887 188.793 382.02 195.795C408.154 202.798 435.02 187.275 442.027 161.125C449.034 134.975 433.529 108.099 407.395 101.096C381.261 94.0939 354.395 109.616 347.388 135.767Z" fill="url(#paint46_linear_321_35)"/>
<path d="M338.544 138.228C331.537 164.379 347.042 191.254 373.176 198.257C399.31 205.259 426.176 189.737 433.183 163.587C440.19 137.436 424.684 110.561 398.551 103.558C372.417 96.5556 345.551 112.078 338.544 138.228Z" fill="url(#paint47_linear_321_35)"/>
<path d="M329.785 140.884C322.778 167.035 338.283 193.91 364.417 200.913C390.551 207.915 417.417 192.393 424.424 166.243C431.431 140.092 415.925 113.217 389.792 106.214C363.658 99.2116 336.792 114.734 329.785 140.884Z" fill="url(#paint48_linear_321_35)"/>
<path d="M321.125 143.807C314.118 169.957 329.624 196.833 355.757 203.835C381.891 210.838 408.757 195.315 415.764 169.165C422.771 143.015 407.266 116.139 381.132 109.136C354.998 102.134 328.132 117.656 321.125 143.807Z" fill="url(#paint49_linear_321_35)"/>
<path d="M312.51 146.947C305.503 173.097 321.009 199.973 347.143 206.975C373.276 213.978 400.142 198.455 407.149 172.305C414.156 146.155 398.651 119.279 372.517 112.277C346.383 105.274 319.517 120.796 312.51 146.947Z" fill="url(#paint50_linear_321_35)"/>
<path d="M304.044 150.298C297.037 176.448 312.543 203.324 338.676 210.326C364.81 217.329 391.676 201.807 398.683 175.656C405.69 149.506 390.185 122.63 364.051 115.628C337.917 108.625 311.051 124.147 304.044 150.298Z" fill="url(#paint51_linear_321_35)"/>
<path d="M295.591 153.858C288.579 180.026 304.095 206.92 330.246 213.927C356.398 220.934 383.282 205.402 390.293 179.234C397.305 153.066 381.789 126.172 355.638 119.165C329.486 112.157 302.602 127.69 295.591 153.858Z" fill="url(#paint52_linear_321_35)"/>
<path d="M287.309 157.67C280.298 183.838 295.813 210.732 321.965 217.739C348.116 224.746 375 209.214 382.012 183.046C389.024 156.878 373.508 129.984 347.356 122.977C321.205 115.969 294.321 131.502 287.309 157.67Z" fill="url(#paint53_linear_321_35)"/>
<path d="M279.113 161.676C272.101 187.844 287.617 214.738 313.768 221.745C339.92 228.752 366.804 213.22 373.816 187.052C380.827 160.884 365.311 133.99 339.16 126.983C313.009 119.975 286.125 135.508 279.113 161.676Z" fill="url(#paint54_linear_321_35)"/>
<path d="M271.033 165.885C264.022 192.053 279.538 218.946 305.689 225.954C331.84 232.961 358.725 217.428 365.736 191.26C372.748 165.092 357.232 138.198 331.081 131.191C304.929 124.184 278.045 139.717 271.033 165.885Z" fill="url(#paint55_linear_321_35)"/>
<path d="M263.062 170.328C256.051 196.496 271.566 223.39 297.718 230.397C323.869 237.404 350.753 221.872 357.765 195.704C364.777 169.536 349.261 142.642 323.109 135.634C296.958 128.627 270.074 144.16 263.062 170.328Z" fill="url(#paint56_linear_321_35)"/>
<path d="M255.24 174.983C248.228 201.151 263.744 228.044 289.896 235.052C316.047 242.059 342.931 226.526 349.943 200.358C356.955 174.19 341.439 147.296 315.287 140.289C289.136 133.282 262.252 148.815 255.24 174.983Z" fill="url(#paint57_linear_321_35)"/>
<path d="M247.503 179.831C240.491 205.999 256.007 232.893 282.158 239.9C308.31 246.908 335.194 231.375 342.206 205.207C349.217 179.039 333.702 152.145 307.55 145.138C281.399 138.131 254.515 153.663 247.503 179.831Z" fill="url(#paint58_linear_321_35)"/>
<path d="M239.914 184.891C232.903 211.059 248.419 237.953 274.57 244.96C300.721 251.968 327.606 236.435 334.617 210.267C341.629 184.099 326.113 157.205 299.962 150.198C273.81 143.19 246.926 158.723 239.914 184.891Z" fill="url(#paint59_linear_321_35)"/>
<path d="M232.411 190.145C225.395 216.331 240.921 243.243 267.09 250.255C293.259 257.267 320.161 241.723 327.178 215.538C334.194 189.352 318.668 162.44 292.499 155.428C266.33 148.416 239.427 163.959 232.411 190.145Z" fill="url(#paint60_linear_321_35)"/>
<path d="M225.097 195.587C218.081 221.773 233.607 248.685 259.776 255.697C285.945 262.709 312.847 247.165 319.864 220.98C326.88 194.794 311.354 167.882 285.185 160.87C259.016 153.858 232.113 169.401 225.097 195.587Z" fill="url(#paint61_linear_321_35)"/>
<path d="M217.932 201.24C210.915 227.426 226.442 254.338 252.611 261.35C278.78 268.362 305.682 252.818 312.699 226.633C319.715 200.447 304.189 173.535 278.02 166.523C251.85 159.511 224.948 175.054 217.932 201.24Z" fill="url(#paint62_linear_321_35)"/>
<path d="M210.892 207.064C203.876 233.249 219.402 260.161 245.571 267.173C271.74 274.185 298.643 258.642 305.659 232.456C312.675 206.271 297.149 179.359 270.98 172.347C244.811 165.335 217.909 180.878 210.892 207.064Z" fill="url(#paint63_linear_321_35)"/>
<path d="M204.001 213.099C196.985 239.284 212.511 266.196 238.68 273.208C264.85 280.22 291.752 264.677 298.768 238.491C305.785 212.306 290.258 185.394 264.089 178.382C237.92 171.37 211.018 186.913 204.001 213.099Z" fill="url(#paint64_linear_321_35)"/>
<path d="M197.268 219.313C190.252 245.498 205.778 272.41 231.947 279.422C258.116 286.434 285.018 270.891 292.035 244.706C299.051 218.52 283.525 191.608 257.356 184.596C231.187 177.584 204.284 193.127 197.268 219.313Z" fill="url(#paint65_linear_321_35)"/>
<path d="M190.724 225.715C183.708 251.901 199.234 278.813 225.403 285.825C251.572 292.837 278.474 277.293 285.491 251.108C292.507 224.922 276.981 198.01 250.812 190.998C224.643 183.986 197.741 199.529 190.724 225.715Z" fill="url(#paint66_linear_321_35)"/>
<path d="M184.306 232.288C177.289 258.473 192.816 285.385 218.985 292.397C245.154 299.409 272.056 283.866 279.072 257.68C286.089 231.495 270.562 204.583 244.393 197.571C218.224 190.559 191.322 206.102 184.306 232.288Z" fill="url(#paint67_linear_321_35)"/>
<path d="M178.068 239.08C171.052 265.266 186.578 292.178 212.747 299.19C238.916 306.202 265.818 290.658 272.835 264.473C279.851 238.287 264.325 211.375 238.156 204.363C211.987 197.351 185.084 212.895 178.068 239.08Z" fill="url(#paint68_linear_321_35)"/>
<path d="M171.964 246.011C164.943 272.215 180.48 299.145 206.667 306.161C232.854 313.178 259.774 297.624 266.795 271.421C273.816 245.218 258.279 218.288 232.093 211.271C205.906 204.254 178.985 219.808 171.964 246.011Z" fill="url(#paint69_linear_321_35)"/>
<path d="M166.091 253.107C159.07 279.31 174.606 306.24 200.793 313.257C226.98 320.274 253.9 304.72 260.921 278.517C267.943 252.314 252.406 225.383 226.219 218.367C200.032 211.35 173.112 226.904 166.091 253.107Z" fill="url(#paint70_linear_321_35)"/>
<path d="M160.398 260.422C153.377 286.625 168.914 313.556 195.1 320.572C221.287 327.589 248.207 312.035 255.229 285.832C262.25 259.629 246.713 232.699 220.526 225.682C194.339 218.665 167.419 234.219 160.398 260.422Z" fill="url(#paint71_linear_321_35)"/>
<path d="M154.88 267.853C147.858 294.056 163.395 320.986 189.582 328.003C215.769 335.02 242.689 319.466 249.71 293.263C256.731 267.059 241.195 240.129 215.008 233.112C188.821 226.096 161.901 241.65 154.88 267.853Z" fill="url(#paint72_linear_321_35)"/>
<path d="M149.542 275.503C142.521 301.707 158.058 328.637 184.245 335.654C210.431 342.67 237.352 327.117 244.373 300.913C251.394 274.71 235.857 247.78 209.67 240.763C183.484 233.746 156.563 249.3 149.542 275.503Z" fill="url(#paint73_linear_321_35)"/>
<path d="M144.411 283.278C137.39 309.481 152.927 336.411 179.114 343.428C205.3 350.445 232.221 334.891 239.242 308.688C246.263 282.484 230.726 255.554 204.539 248.538C178.353 241.521 151.432 257.075 144.411 283.278Z" fill="url(#paint74_linear_321_35)"/>
<path d="M139.47 291.24C132.449 317.443 147.985 344.373 174.172 351.39C200.359 358.407 227.279 342.853 234.3 316.65C241.321 290.447 225.785 263.516 199.598 256.5C173.411 249.483 146.491 265.037 139.47 291.24Z" fill="url(#paint75_linear_321_35)"/>
<path d="M134.766 299.335C127.745 325.538 143.282 352.468 169.469 359.485C195.656 366.501 222.576 350.948 229.597 324.744C236.618 298.541 221.081 271.611 194.895 264.594C168.708 257.577 141.788 273.131 134.766 299.335Z" fill="url(#paint76_linear_321_35)"/>
<path d="M130.189 307.6C123.163 333.821 138.71 360.769 164.915 367.791C191.119 374.812 218.058 359.248 225.083 333.027C232.109 306.806 216.562 279.858 190.358 272.836C164.153 265.815 137.215 281.379 130.189 307.6Z" fill="url(#paint77_linear_321_35)"/>
<path d="M125.914 316.015C118.888 342.236 134.435 369.184 160.64 376.205C186.844 383.227 213.782 367.663 220.808 341.442C227.834 315.221 212.287 288.272 186.083 281.251C159.878 274.229 132.94 289.794 125.914 316.015Z" fill="url(#paint78_linear_321_35)"/>
<path d="M121.805 324.577C114.779 350.798 130.326 377.746 156.53 384.768C182.735 391.789 209.673 376.225 216.699 350.004C223.725 323.783 208.178 296.835 181.973 289.813C155.769 282.792 128.83 298.356 121.805 324.577Z" fill="url(#paint79_linear_321_35)"/>
</g>
<defs>
<linearGradient id="paint0_linear_321_35" x1="783.16" y1="247.323" x2="757.88" y2="341.67" gradientUnits="userSpaceOnUse">
<stop stop-color="#00FFFF"/>
<stop offset="1" stop-color="#0071BC"/>
</linearGradient>
<linearGradient id="paint1_linear_321_35" x1="778.138" y1="239.74" x2="752.857" y2="334.087" gradientUnits="userSpaceOnUse">
<stop stop-color="#00FFFF"/>
<stop offset="1" stop-color="#0070BC"/>
</linearGradient>
<linearGradient id="paint2_linear_321_35" x1="772.872" y1="232.298" x2="747.592" y2="326.645" gradientUnits="userSpaceOnUse">
<stop stop-color="#00FEFF"/>
<stop offset="1" stop-color="#0070BD"/>
</linearGradient>
<linearGradient id="paint3_linear_321_35" x1="767.435" y1="224.982" x2="742.155" y2="319.329" gradientUnits="userSpaceOnUse">
<stop stop-color="#01FEFF"/>
<stop offset="1" stop-color="#006FBD"/>
</linearGradient>
<linearGradient id="paint4_linear_321_35" x1="761.82" y1="217.823" x2="736.539" y2="312.17" gradientUnits="userSpaceOnUse">
<stop stop-color="#01FDFE"/>
<stop offset="1" stop-color="#006FBD"/>
</linearGradient>
<linearGradient id="paint5_linear_321_35" x1="756.001" y1="210.782" x2="730.721" y2="305.129" gradientUnits="userSpaceOnUse">
<stop stop-color="#01FDFE"/>
<stop offset="1" stop-color="#006EBE"/>
</linearGradient>
<linearGradient id="paint6_linear_321_35" x1="749.972" y1="203.889" x2="724.683" y2="298.268" gradientUnits="userSpaceOnUse">
<stop stop-color="#01FCFE"/>
<stop offset="1" stop-color="#006EBE"/>
</linearGradient>
<linearGradient id="paint7_linear_321_35" x1="743.786" y1="197.195" x2="718.506" y2="291.542" gradientUnits="userSpaceOnUse">
<stop stop-color="#01FCFE"/>
<stop offset="1" stop-color="#006DBE"/>
</linearGradient>
<linearGradient id="paint8_linear_321_35" x1="737.398" y1="190.617" x2="712.11" y2="284.996" gradientUnits="userSpaceOnUse">
<stop stop-color="#02FCFE"/>
<stop offset="1" stop-color="#006DBF"/>
</linearGradient>
<linearGradient id="paint9_linear_321_35" x1="730.831" y1="184.197" x2="705.534" y2="278.608" gradientUnits="userSpaceOnUse">
<stop stop-color="#02FBFE"/>
<stop offset="1" stop-color="#006CBF"/>
</linearGradient>
<linearGradient id="paint10_linear_321_35" x1="724.076" y1="177.967" x2="698.779" y2="272.378" gradientUnits="userSpaceOnUse">
<stop stop-color="#02FBFE"/>
<stop offset="1" stop-color="#006BBF"/>
</linearGradient>
<linearGradient id="paint11_linear_321_35" x1="717.166" y1="171.935" x2="691.877" y2="266.314" gradientUnits="userSpaceOnUse">
<stop stop-color="#02FAFD"/>
<stop offset="1" stop-color="#006BC0"/>
</linearGradient>
<linearGradient id="paint12_linear_321_35" x1="710.052" y1="166.019" x2="684.747" y2="260.462" gradientUnits="userSpaceOnUse">
<stop stop-color="#02FAFD"/>
<stop offset="1" stop-color="#006AC0"/>
</linearGradient>
<linearGradient id="paint13_linear_321_35" x1="702.807" y1="160.343" x2="677.51" y2="254.754" gradientUnits="userSpaceOnUse">
<stop stop-color="#03FAFD"/>
<stop offset="1" stop-color="#006AC0"/>
</linearGradient>
<linearGradient id="paint14_linear_321_35" x1="695.35" y1="154.815" x2="670.044" y2="249.258" gradientUnits="userSpaceOnUse">
<stop stop-color="#03F9FD"/>
<stop offset="1" stop-color="#0069C1"/>
</linearGradient>
<linearGradient id="paint15_linear_321_35" x1="687.769" y1="149.494" x2="662.463" y2="243.937" gradientUnits="userSpaceOnUse">
<stop stop-color="#03F9FD"/>
<stop offset="1" stop-color="#0069C1"/>
</linearGradient>
<linearGradient id="paint16_linear_321_35" x1="680.001" y1="144.363" x2="654.695" y2="238.806" gradientUnits="userSpaceOnUse">
<stop stop-color="#03F8FD"/>
<stop offset="1" stop-color="#0068C1"/>
</linearGradient>
<linearGradient id="paint17_linear_321_35" x1="672.076" y1="139.43" x2="646.771" y2="233.873" gradientUnits="userSpaceOnUse">
<stop stop-color="#03F8FD"/>
<stop offset="1" stop-color="#0067C2"/>
</linearGradient>
<linearGradient id="paint18_linear_321_35" x1="663.964" y1="134.686" x2="638.65" y2="229.161" gradientUnits="userSpaceOnUse">
<stop stop-color="#04F7FC"/>
<stop offset="1" stop-color="#0067C2"/>
</linearGradient>
<linearGradient id="paint19_linear_321_35" x1="655.72" y1="130.181" x2="630.405" y2="224.656" gradientUnits="userSpaceOnUse">
<stop stop-color="#04F7FC"/>
<stop offset="1" stop-color="#0066C2"/>
</linearGradient>
<linearGradient id="paint20_linear_321_35" x1="647.32" y1="125.875" x2="622.005" y2="220.349" gradientUnits="userSpaceOnUse">
<stop stop-color="#04F7FC"/>
<stop offset="1" stop-color="#0066C3"/>
</linearGradient>
<linearGradient id="paint21_linear_321_35" x1="638.795" y1="121.774" x2="613.472" y2="216.281" gradientUnits="userSpaceOnUse">
<stop stop-color="#04F6FC"/>
<stop offset="1" stop-color="#0065C3"/>
</linearGradient>
<linearGradient id="paint22_linear_321_35" x1="630.107" y1="117.904" x2="604.784" y2="212.411" gradientUnits="userSpaceOnUse">
<stop stop-color="#04F6FC"/>
<stop offset="1" stop-color="#0065C3"/>
</linearGradient>
<linearGradient id="paint23_linear_321_35" x1="621.254" y1="114.264" x2="595.931" y2="208.771" gradientUnits="userSpaceOnUse">
<stop stop-color="#05F5FC"/>
<stop offset="1" stop-color="#0064C4"/>
</linearGradient>
<linearGradient id="paint24_linear_321_35" x1="612.268" y1="110.863" x2="586.945" y2="205.37" gradientUnits="userSpaceOnUse">
<stop stop-color="#05F5FC"/>
<stop offset="1" stop-color="#0064C4"/>
</linearGradient>
<linearGradient id="paint25_linear_321_35" x1="603.119" y1="107.692" x2="577.796" y2="202.199" gradientUnits="userSpaceOnUse">
<stop stop-color="#05F5FB"/>
<stop offset="1" stop-color="#0063C4"/>
</linearGradient>
<linearGradient id="paint26_linear_321_35" x1="593.877" y1="104.736" x2="568.545" y2="199.274" gradientUnits="userSpaceOnUse">
<stop stop-color="#05F4FB"/>
<stop offset="1" stop-color="#0062C5"/>
</linearGradient>
<linearGradient id="paint27_linear_321_35" x1="584.462" y1="102.042" x2="559.131" y2="196.58" gradientUnits="userSpaceOnUse">
<stop stop-color="#06F4FB"/>
<stop offset="1" stop-color="#0062C5"/>
</linearGradient>
<linearGradient id="paint28_linear_321_35" x1="574.979" y1="99.6033" x2="549.647" y2="194.142" gradientUnits="userSpaceOnUse">
<stop stop-color="#06F3FB"/>
<stop offset="1" stop-color="#0061C5"/>
</linearGradient>
<linearGradient id="paint29_linear_321_35" x1="565.459" y1="97.4295" x2="540.119" y2="192" gradientUnits="userSpaceOnUse">
<stop stop-color="#06F3FB"/>
<stop offset="1" stop-color="#0061C6"/>
</linearGradient>
<linearGradient id="paint30_linear_321_35" x1="555.958" y1="95.5691" x2="530.627" y2="190.108" gradientUnits="userSpaceOnUse">
<stop stop-color="#06F2FB"/>
<stop offset="1" stop-color="#0060C6"/>
</linearGradient>
<linearGradient id="paint31_linear_321_35" x1="546.461" y1="93.9495" x2="521.121" y2="188.52" gradientUnits="userSpaceOnUse">
<stop stop-color="#06F2FB"/>
<stop offset="1" stop-color="#0060C6"/>
</linearGradient>
<linearGradient id="paint32_linear_321_35" x1="536.951" y1="92.6348" x2="511.611" y2="187.206" gradientUnits="userSpaceOnUse">
<stop stop-color="#07F2FA"/>
<stop offset="1" stop-color="#005FC7"/>
</linearGradient>
<linearGradient id="paint33_linear_321_35" x1="527.476" y1="91.5696" x2="502.136" y2="186.14" gradientUnits="userSpaceOnUse">
<stop stop-color="#07F1FA"/>
<stop offset="1" stop-color="#005EC7"/>
</linearGradient>
<linearGradient id="paint34_linear_321_35" x1="518.006" y1="90.7454" x2="492.657" y2="185.348" gradientUnits="userSpaceOnUse">
<stop stop-color="#07F1FA"/>
<stop offset="1" stop-color="#005EC7"/>
</linearGradient>
<linearGradient id="paint35_linear_321_35" x1="508.586" y1="90.2429" x2="483.246" y2="184.814" gradientUnits="userSpaceOnUse">
<stop stop-color="#07F0FA"/>
<stop offset="1" stop-color="#005DC8"/>
</linearGradient>
<linearGradient id="paint36_linear_321_35" x1="499.147" y1="89.9412" x2="473.798" y2="184.544" gradientUnits="userSpaceOnUse">
<stop stop-color="#07F0FA"/>
<stop offset="1" stop-color="#005DC8"/>
</linearGradient>
<linearGradient id="paint37_linear_321_35" x1="489.767" y1="89.9292" x2="464.41" y2="184.564" gradientUnits="userSpaceOnUse">
<stop stop-color="#08F0FA"/>
<stop offset="1" stop-color="#005CC8"/>
</linearGradient>
<linearGradient id="paint38_linear_321_35" x1="480.414" y1="90.1987" x2="455.066" y2="184.801" gradientUnits="userSpaceOnUse">
<stop stop-color="#08EFFA"/>
<stop offset="1" stop-color="#005CC9"/>
</linearGradient>
<linearGradient id="paint39_linear_321_35" x1="471.106" y1="90.6858" x2="445.749" y2="185.321" gradientUnits="userSpaceOnUse">
<stop stop-color="#08EFF9"/>
<stop offset="1" stop-color="#005BC9"/>
</linearGradient>
<linearGradient id="paint40_linear_321_35" x1="461.825" y1="91.4543" x2="436.468" y2="186.089" gradientUnits="userSpaceOnUse">
<stop stop-color="#08EEF9"/>
<stop offset="1" stop-color="#005BC9"/>
</linearGradient>
<linearGradient id="paint41_linear_321_35" x1="452.621" y1="92.449" x2="427.264" y2="187.084" gradientUnits="userSpaceOnUse">
<stop stop-color="#08EEF9"/>
<stop offset="1" stop-color="#005ACA"/>
</linearGradient>
<linearGradient id="paint42_linear_321_35" x1="443.452" y1="93.6931" x2="418.086" y2="188.36" gradientUnits="userSpaceOnUse">
<stop stop-color="#09EDF9"/>
<stop offset="1" stop-color="#0059CA"/>
</linearGradient>
<linearGradient id="paint43_linear_321_35" x1="434.32" y1="95.1868" x2="408.954" y2="189.853" gradientUnits="userSpaceOnUse">
<stop stop-color="#09EDF9"/>
<stop offset="1" stop-color="#0059CA"/>
</linearGradient>
<linearGradient id="paint44_linear_321_35" x1="425.295" y1="96.9148" x2="399.929" y2="191.581" gradientUnits="userSpaceOnUse">
<stop stop-color="#09EDF9"/>
<stop offset="1" stop-color="#0058CB"/>
</linearGradient>
<linearGradient id="paint45_linear_321_35" x1="416.307" y1="98.8926" x2="390.941" y2="193.559" gradientUnits="userSpaceOnUse">
<stop stop-color="#09ECF9"/>
<stop offset="1" stop-color="#0058CB"/>
</linearGradient>
<linearGradient id="paint46_linear_321_35" x1="407.395" y1="101.096" x2="382.02" y2="195.795" gradientUnits="userSpaceOnUse">
<stop stop-color="#09ECF8"/>
<stop offset="1" stop-color="#0057CB"/>
</linearGradient>
<linearGradient id="paint47_linear_321_35" x1="398.551" y1="103.558" x2="373.176" y2="198.257" gradientUnits="userSpaceOnUse">
<stop stop-color="#0AEBF8"/>
<stop offset="1" stop-color="#0057CC"/>
</linearGradient>
<linearGradient id="paint48_linear_321_35" x1="389.792" y1="106.214" x2="364.417" y2="200.913" gradientUnits="userSpaceOnUse">
<stop stop-color="#0AEBF8"/>
<stop offset="1" stop-color="#0056CC"/>
</linearGradient>
<linearGradient id="paint49_linear_321_35" x1="381.132" y1="109.136" x2="355.757" y2="203.835" gradientUnits="userSpaceOnUse">
<stop stop-color="#0AEBF8"/>
<stop offset="1" stop-color="#0055CC"/>
</linearGradient>
<linearGradient id="paint50_linear_321_35" x1="372.526" y1="112.245" x2="347.143" y2="206.975" gradientUnits="userSpaceOnUse">
<stop stop-color="#0AEAF8"/>
<stop offset="1" stop-color="#0055CD"/>
</linearGradient>
<linearGradient id="paint51_linear_321_35" x1="364.051" y1="115.628" x2="338.676" y2="210.326" gradientUnits="userSpaceOnUse">
<stop stop-color="#0AEAF8"/>
<stop offset="1" stop-color="#0054CD"/>
</linearGradient>
<linearGradient id="paint52_linear_321_35" x1="355.629" y1="119.196" x2="330.246" y2="213.927" gradientUnits="userSpaceOnUse">
<stop stop-color="#0BE9F7"/>
<stop offset="1" stop-color="#0054CD"/>
</linearGradient>
<linearGradient id="paint53_linear_321_35" x1="347.356" y1="122.977" x2="321.973" y2="217.707" gradientUnits="userSpaceOnUse">
<stop stop-color="#0BE9F7"/>
<stop offset="1" stop-color="#0053CE"/>
</linearGradient>
<linearGradient id="paint54_linear_321_35" x1="339.16" y1="126.983" x2="313.768" y2="221.745" gradientUnits="userSpaceOnUse">
<stop stop-color="#0BE8F7"/>
<stop offset="1" stop-color="#0053CE"/>
</linearGradient>
<linearGradient id="paint55_linear_321_35" x1="331.072" y1="131.223" x2="305.689" y2="225.954" gradientUnits="userSpaceOnUse">
<stop stop-color="#0BE8F7"/>
<stop offset="1" stop-color="#0052CE"/>
</linearGradient>
<linearGradient id="paint56_linear_321_35" x1="323.11" y1="135.634" x2="297.718" y2="230.397" gradientUnits="userSpaceOnUse">
<stop stop-color="#0BE8F7"/>
<stop offset="1" stop-color="#0052CF"/>
</linearGradient>
<linearGradient id="paint57_linear_321_35" x1="315.287" y1="140.289" x2="289.896" y2="235.052" gradientUnits="userSpaceOnUse">
<stop stop-color="#0CE7F7"/>
<stop offset="1" stop-color="#0051CF"/>
</linearGradient>
<linearGradient id="paint58_linear_321_35" x1="307.55" y1="145.138" x2="282.159" y2="239.901" gradientUnits="userSpaceOnUse">
<stop stop-color="#0CE7F7"/>
<stop offset="1" stop-color="#0050CF"/>
</linearGradient>
<linearGradient id="paint59_linear_321_35" x1="299.97" y1="150.166" x2="274.57" y2="244.96" gradientUnits="userSpaceOnUse">
<stop stop-color="#0CE6F6"/>
<stop offset="1" stop-color="#0050D0"/>
</linearGradient>
<linearGradient id="paint60_linear_321_35" x1="292.499" y1="155.428" x2="267.099" y2="250.223" gradientUnits="userSpaceOnUse">
<stop stop-color="#0CE6F6"/>
<stop offset="1" stop-color="#004FD0"/>
</linearGradient>
<linearGradient id="paint61_linear_321_35" x1="285.185" y1="160.87" x2="259.785" y2="255.665" gradientUnits="userSpaceOnUse">
<stop stop-color="#0CE6F6"/>
<stop offset="1" stop-color="#004FD0"/>
</linearGradient>
<linearGradient id="paint62_linear_321_35" x1="278.02" y1="166.523" x2="252.611" y2="261.35" gradientUnits="userSpaceOnUse">
<stop stop-color="#0DE5F6"/>
<stop offset="1" stop-color="#004ED1"/>
</linearGradient>
<linearGradient id="paint63_linear_321_35" x1="270.98" y1="172.347" x2="245.571" y2="267.173" gradientUnits="userSpaceOnUse">
<stop stop-color="#0DE5F6"/>
<stop offset="1" stop-color="#004ED1"/>
</linearGradient>
<linearGradient id="paint64_linear_321_35" x1="264.089" y1="178.382" x2="238.68" y2="273.208" gradientUnits="userSpaceOnUse">
<stop stop-color="#0DE4F6"/>
<stop offset="1" stop-color="#004DD1"/>
</linearGradient>
<linearGradient id="paint65_linear_321_35" x1="257.356" y1="184.596" x2="231.947" y2="279.422" gradientUnits="userSpaceOnUse">
<stop stop-color="#0DE4F6"/>
<stop offset="1" stop-color="#004CD2"/>
</linearGradient>
<linearGradient id="paint66_linear_321_35" x1="250.812" y1="190.998" x2="225.403" y2="285.825" gradientUnits="userSpaceOnUse">
<stop stop-color="#0DE3F5"/>
<stop offset="1" stop-color="#004CD2"/>
</linearGradient>
<linearGradient id="paint67_linear_321_35" x1="244.393" y1="197.571" x2="218.976" y2="292.429" gradientUnits="userSpaceOnUse">
<stop stop-color="#0EE3F5"/>
<stop offset="1" stop-color="#004BD2"/>
</linearGradient>
<linearGradient id="paint68_linear_321_35" x1="238.164" y1="204.331" x2="212.747" y2="299.19" gradientUnits="userSpaceOnUse">
<stop stop-color="#0EE3F5"/>
<stop offset="1" stop-color="#004BD3"/>
</linearGradient>
<linearGradient id="paint69_linear_321_35" x1="232.093" y1="211.271" x2="206.675" y2="306.129" gradientUnits="userSpaceOnUse">
<stop stop-color="#0EE2F5"/>
<stop offset="1" stop-color="#004AD3"/>
</linearGradient>
<linearGradient id="paint70_linear_321_35" x1="226.21" y1="218.399" x2="200.793" y2="313.257" gradientUnits="userSpaceOnUse">
<stop stop-color="#0EE2F5"/>
<stop offset="1" stop-color="#004AD3"/>
</linearGradient>
<linearGradient id="paint71_linear_321_35" x1="220.526" y1="225.682" x2="195.109" y2="320.54" gradientUnits="userSpaceOnUse">
<stop stop-color="#0EE1F5"/>
<stop offset="1" stop-color="#0049D4"/>
</linearGradient>
<linearGradient id="paint72_linear_321_35" x1="215.008" y1="233.112" x2="189.582" y2="328.003" gradientUnits="userSpaceOnUse">
<stop stop-color="#0FE1F5"/>
<stop offset="1" stop-color="#0049D4"/>
</linearGradient>
<linearGradient id="paint73_linear_321_35" x1="209.679" y1="240.731" x2="184.245" y2="335.654" gradientUnits="userSpaceOnUse">
<stop stop-color="#0FE0F4"/>
<stop offset="1" stop-color="#0048D4"/>
</linearGradient>
<linearGradient id="paint74_linear_321_35" x1="204.539" y1="248.538" x2="179.114" y2="343.428" gradientUnits="userSpaceOnUse">
<stop stop-color="#0FE0F4"/>
<stop offset="1" stop-color="#0047D5"/>
</linearGradient>
<linearGradient id="paint75_linear_321_35" x1="199.606" y1="256.468" x2="174.172" y2="351.39" gradientUnits="userSpaceOnUse">
<stop stop-color="#0FE0F4"/>
<stop offset="1" stop-color="#0047D5"/>
</linearGradient>
<linearGradient id="paint76_linear_321_35" x1="194.895" y1="264.594" x2="169.46" y2="359.517" gradientUnits="userSpaceOnUse">
<stop stop-color="#10DFF4"/>
<stop offset="1" stop-color="#0046D5"/>
</linearGradient>
<linearGradient id="paint77_linear_321_35" x1="190.358" y1="272.836" x2="164.923" y2="367.759" gradientUnits="userSpaceOnUse">
<stop stop-color="#10DFF4"/>
<stop offset="1" stop-color="#0046D6"/>
</linearGradient>
<linearGradient id="paint78_linear_321_35" x1="186.083" y1="281.251" x2="160.64" y2="376.205" gradientUnits="userSpaceOnUse">
<stop stop-color="#10DEF4"/>
<stop offset="1" stop-color="#0045D6"/>
</linearGradient>
<linearGradient id="paint79_linear_321_35" x1="181.973" y1="289.813" x2="156.53" y2="384.768" gradientUnits="userSpaceOnUse">
<stop stop-color="#10DEF4"/>
<stop offset="1" stop-color="#0045D6"/>
</linearGradient>
<clipPath id="clip0_321_35">
<rect width="786.797" height="786.797" fill="white" transform="translate(963.625 203.638) rotate(105)"/>
</clipPath>
</defs>
</svg>
