<?xml version="1.0" encoding="utf-8"?>
<!-- Generator: Adobe Illustrator 26.0.0, SVG Export Plug-In . SVG Version: 6.00 Build 0)  -->
<svg version="1.1" id="Layer_1" xmlns="http://www.w3.org/2000/svg" xmlns:xlink="http://www.w3.org/1999/xlink" x="0px" y="0px"
	 viewBox="0 0 512 512" style="enable-background:new 0 0 512 512;" xml:space="preserve">
<style type="text/css">
	.st0{fill:#D41818;}
</style>
<g id="XMLID_1_">
	<g id="XMLID_69_">
		<path id="XMLID_70_" class="st0" d="M432.46,364.42c-15.85,15.85-34.65,27.92-55.69,35.35c-6.73,2.24-12.77,3.79-19.64,6.03
			c-9.82,2.24-20.34,3.79-30.86,3.79c-1.54,0-1.54,0-2.95,0c-36.19,0-70-12.06-97.22-34.65c-3.79-2.95-7.58-6.73-11.36-9.82
			l-7.58-7.58l-17.25-17.25l-47.42-47.42c-6.73-6.73-6.73-17.25,0-24.83c3.79-3.79,7.58-5.33,12.06-5.33
			c4.49,0,8.98,1.54,12.06,5.33l71.54,71.54c6.73,6.73,14.31,12.06,21.88,17.25c18.1,11.36,39.14,17.25,61.72,17.25
			c9.82,0,20.34-1.54,29.32-3.79c6.03-1.54,12.06-3.79,17.25-6.03c13.61-6.03,26.37-14.31,37.6-25.67
			c45.87-45.87,45.87-121.2,0-167.22c-23.29-23.29-53.45-34.65-83.61-34.65c-23.29,0-45.87,6.73-66.21,20.34
			c-9.82-7.58-20.34-14.31-32.41-19.64c28.62-23.29,63.97-35.35,98.62-35.35c39.14,0,78.28,15.01,108.44,44.47
			C491.94,207.02,491.94,304.24,432.46,364.42z M160.59,409.59c-33.95,0-64.81-14.31-88.1-38.44c-48.96-48.96-48.96-128.08,0-176.2
			c23.29-23.29,54.99-36.89,88.1-36.89h0.7c6.73,0,12.06,0.7,18.1,1.54c6.73,1.54,12.77,2.24,19.64,4.49
			c12.06,3.79,23.29,9.82,33.11,16.55c4.49,3.79,9.82,6.73,13.61,11.36c1.54,1.54,2.24,2.24,3.79,3.79l8.98,8.98L300.74,247
			c6.73,6.73,6.73,17.25,0,24.83c-3.79,3.79-7.58,5.33-12.06,5.33c-4.49,0-8.98-1.54-12.06-5.33l-42.23-42.23l-8.98-8.98
			c-1.54-1.54-2.95-2.24-3.79-3.79c-12.06-10.52-26.37-17.25-42.23-20.34c-5.33-1.54-11.36-1.54-16.55-1.54c-0.7,0-1.54,0-2.24,0
			c-23.29,0.7-44.47,9.82-61.02,26.37c-35.35,35.35-35.35,91.89,0,127.24c17.25,17.25,39.14,26.37,63.97,26.37h15.85l15.01,14.31
			c7.58,7.58,15.01,15.01,24.13,20.34H160.59z M456.59,122.71c-35.35-35.35-82.91-54.99-133.27-54.99
			c-50.36,0-97.92,19.64-133.27,54.99l-3.79,3.79c-8.98-1.54-17.25-2.24-26.37-2.24c-42.23,0-82.91,16.55-112.93,47.42
			c-62.57,62.57-62.57,163.43,0,226c30.16,30.16,70,46.71,112.93,46.71h164.13h1.54c0.7,0,1.54,0,1.54,0
			c49.66-0.7,95.67-20.34,130.32-54.99C530.38,315.46,530.38,195.8,456.59,122.71z"/>
	</g>
</g>
</svg>
