<?xml version="1.0" encoding="utf-8"?>
<!-- Generator: Adobe Illustrator 26.0.0, SVG Export Plug-In . SVG Version: 6.00 Build 0)  -->
<svg version="1.1" id="Layer_1" xmlns="http://www.w3.org/2000/svg" xmlns:xlink="http://www.w3.org/1999/xlink" x="0px" y="0px"
	 viewBox="0 0 512 512" style="enable-background:new 0 0 512 512;" xml:space="preserve">
<style type="text/css">
	.st0{fill:#0ACF83;}
	.st1{fill:#A259FF;}
	.st2{fill:#F24E1E;}
	.st3{fill:#FF7262;}
	.st4{fill:#1ABCFE;}
</style>
<path class="st0" d="M178.01,489.97c43.05,0,77.99-34.94,77.99-77.99v-77.99h-77.99c-43.05,0-77.99,34.94-77.99,77.99
	S134.96,489.97,178.01,489.97z"/>
<path class="st1" d="M100.02,256c0-43.05,34.94-77.99,77.99-77.99H256v155.98h-77.99C134.96,333.99,100.02,299.05,100.02,256z"/>
<path class="st2" d="M100.02,100.02c0-43.05,34.94-77.99,77.99-77.99H256v155.98h-77.99C134.96,178.01,100.02,143.07,100.02,100.02z
	"/>
<path class="st3" d="M256,22.03h77.99c43.05,0,77.99,34.94,77.99,77.99s-34.94,77.99-77.99,77.99H256V22.03z"/>
<path class="st4" d="M411.98,256c0,43.05-34.94,77.99-77.99,77.99S256,299.05,256,256s34.94-77.99,77.99-77.99
	S411.98,212.95,411.98,256z"/>
</svg>
