<?xml version="1.0" encoding="utf-8"?>
<!-- Generator: Adobe Illustrator 26.0.0, SVG Export Plug-In . SVG Version: 6.00 Build 0)  -->
<svg version="1.1" id="Layer_1" xmlns="http://www.w3.org/2000/svg" xmlns:xlink="http://www.w3.org/1999/xlink" x="0px" y="0px"
	 viewBox="0 0 512 512" style="enable-background:new 0 0 512 512;" xml:space="preserve">
<style type="text/css">
	.st0{fill:#FFC24A;}
	.st1{fill-rule:evenodd;clip-rule:evenodd;fill:#FFA712;}
	.st2{fill:#F4BD62;}
	.st3{fill-rule:evenodd;clip-rule:evenodd;fill:#FFA50E;}
	.st4{fill:#F6820C;}
	.st5{fill:#FDE068;}
	.st6{fill:#FCCA3F;}
	.st7{fill:#EEAB37;}
</style>
<path class="st0" d="M76.34,405.22l2.94-4.12L218.4,137.13l0.29-2.79L157.37,19.14c-5.14-9.65-19.61-7.21-21.29,3.59L76.34,405.22z"
	/>
<g>
	<path id="a" class="st1" d="M78.07,402.08l2.22-4.34l137.66-261.21L156.79,20.87c-5.08-9.55-17.99-7.11-19.66,3.57L78.07,402.08z"
		/>
</g>
<path class="st2" d="M263.4,221.47l45.66-46.76l-45.68-87.2c-4.34-8.25-16.44-8.28-20.73,0l-24.4,46.54v3.96L263.4,221.47
	L263.4,221.47z"/>
<g>
	<path id="c" class="st3" d="M262.58,219.52l44.39-45.46l-44.39-84.53c-4.22-8.02-14.46-8.87-18.63-0.82l-24.53,47.26l-0.73,2.42
		L262.58,219.52z"/>
</g>
<path class="st4" d="M76.34,405.22l1.33-1.34l4.84-1.97l178.02-177.36l2.26-6.14l-44.41-84.62L76.34,405.22z"/>
<path class="st5" d="M269.1,494.67l161.11-89.85l-46.01-283.35c-1.44-8.87-12.32-12.37-18.66-6.01L76.34,405.22l160.19,89.44
	C246.65,500.31,258.98,500.31,269.1,494.67"/>
<path class="st6" d="M428.77,404.06l-45.66-281.2c-1.43-8.8-10.47-12.44-16.77-6.13L78.12,404.67l158.43,88.55
	c10.05,5.61,22.28,5.61,32.33,0.01L428.77,404.06L428.77,404.06z"/>
<path class="st7" d="M269.1,492.02c-10.13,5.65-22.45,5.64-32.58-0.01l-158.9-88.15l-1.29,1.36l160.19,89.44
	c10.12,5.65,22.45,5.65,32.58,0.01l161.11-89.85l-0.39-2.43L269.1,492.02L269.1,492.02z"/>
</svg>
