<?xml version="1.0" encoding="utf-8"?>
<!-- Generator: Adobe Illustrator 26.0.0, SVG Export Plug-In . SVG Version: 6.00 Build 0)  -->
<svg version="1.1" id="Layer_1" xmlns="http://www.w3.org/2000/svg" xmlns:xlink="http://www.w3.org/1999/xlink" x="0px" y="0px"
	 viewBox="0 0 512 512" style="enable-background:new 0 0 512 512;" xml:space="preserve">
<style type="text/css">
	.st0{fill:#F9AB00;}
	.st1{fill:#E37400;}
</style>
<g>
	<path class="st0" d="M479.98,440.04c0.18,34.05-27.28,61.77-61.3,61.96c-2.53,0.02-5.08-0.12-7.59-0.43
		c-31.58-4.67-54.71-32.15-53.94-64.06V70.67c-0.75-31.95,22.44-59.43,54.04-64.06c33.8-3.96,64.42,20.24,68.38,54.04
		c0.29,2.49,0.43,4.98,0.41,7.49V440.04z"/>
	<path class="st1" d="M93.44,379.25c33.93,0,61.42,27.5,61.42,61.42s-27.5,61.42-61.42,61.42c-33.93,0-61.42-27.5-61.42-61.42
		S59.51,379.25,93.44,379.25z M255.05,193.09c-34.09,1.88-60.53,30.46-59.73,64.59v164.98c0,44.78,19.71,71.95,48.57,77.75
		c33.31,6.75,65.77-14.77,72.52-48.08c0.84-4.08,1.24-8.22,1.22-12.38V254.83c0.06-34.05-27.48-61.69-61.53-61.75
		C255.76,193.07,255.4,193.07,255.05,193.09z"/>
</g>
</svg>
