<?xml version="1.0" encoding="utf-8"?>
<!-- Generator: Adobe Illustrator 26.0.0, SVG Export Plug-In . SVG Version: 6.00 Build 0)  -->
<svg version="1.1" id="Layer_1" xmlns="http://www.w3.org/2000/svg" xmlns:xlink="http://www.w3.org/1999/xlink" x="0px" y="0px"
	 viewBox="0 0 512 512" style="enable-background:new 0 0 512 512;" xml:space="preserve">
<style type="text/css">
	.st0{fill:#F0DB4F;}
	.st1{fill:#323330;}
</style>
<path class="st0" d="M25.62,25.62h460.76v460.76H25.62V25.62z"/>
<path class="st1" d="M448.67,376.49c-3.37-21.02-17.08-38.67-57.68-55.14c-14.1-6.48-29.83-11.12-34.51-21.81
	c-1.66-6.22-1.88-9.72-0.83-13.49c3.02-12.22,17.61-16.03,29.17-12.53c7.45,2.5,14.5,8.23,18.75,17.39
	c19.88-12.88,19.84-12.79,33.73-21.64c-5.08-7.88-7.8-11.52-11.12-14.89c-11.96-13.36-28.25-20.24-54.31-19.71
	c-4.51,0.57-9.07,1.18-13.58,1.75c-13.01,3.28-25.4,10.12-32.67,19.27c-21.81,24.75-15.59,68.06,10.95,85.89
	c26.15,19.62,64.56,24.09,69.47,42.44c4.77,22.47-16.51,29.74-37.67,27.16c-15.59-3.24-24.26-11.17-33.64-25.58
	c-17.26,9.99-17.26,9.99-34.99,20.19c4.2,9.2,8.63,13.36,15.68,21.33c33.37,33.86,116.9,32.19,131.88-19.05
	C447.88,406.32,451.91,394.58,448.67,376.49z M276.1,237.39h-43.1c0,37.23-0.17,74.2-0.17,111.42c0,23.7,1.23,45.42-2.63,52.08
	c-6.31,13.1-22.64,11.48-30.09,8.93c-7.58-3.72-11.43-9.02-15.9-16.51c-1.23-2.15-2.15-3.81-2.45-3.94
	c-11.69,7.14-23.34,14.32-35.04,21.46c5.83,11.96,14.41,22.34,25.4,29.08c16.42,9.85,38.5,12.88,61.58,7.58
	c15.02-4.38,27.99-13.45,34.78-27.24c9.81-18.09,7.71-39.99,7.62-64.21C276.32,316.53,276.1,277.02,276.1,237.39L276.1,237.39z"/>
</svg>
