<?xml version="1.0" encoding="utf-8"?>
<!-- Generator: Adobe Illustrator 26.0.0, SVG Export Plug-In . SVG Version: 6.00 Build 0)  -->
<svg version="1.1" id="Layer_1" xmlns="http://www.w3.org/2000/svg" xmlns:xlink="http://www.w3.org/1999/xlink" x="0px" y="0px"
	 viewBox="0 0 512 512" style="enable-background:new 0 0 512 512;" xml:space="preserve">
<style type="text/css">
	.st0{fill:#161616;}
	.st1{fill:#61DAFB;stroke:#61DAFB;stroke-width:4;stroke-miterlimit:10;}
</style>
<circle class="st0" cx="256.2" cy="255.2" r="248.2"/>
<g>
	<path class="st1" d="M451,256c0-25.8-32.3-50.3-81.9-65.5c11.4-50.5,6.4-90.7-16.1-103.7c-5.1-3-11.2-4.5-17.8-4.5v17.7
		c3.6,0,6.6,0.7,9,2.1c10.8,6.2,15.5,29.8,11.9,60.1c-0.8,7.5-2.3,15.3-4.1,23.4c-15.6-3.8-32.6-6.7-50.5-8.6
		c-10.7-14.7-21.9-28-33.1-39.7c25.9-24.1,50.3-37.2,66.8-37.2V82.4c-21.9,0-50.5,15.6-79.4,42.6c-28.9-26.9-57.6-42.3-79.4-42.3
		v17.7c16.4,0,40.9,13.1,66.8,37.1c-11.1,11.7-22.2,25-32.8,39.6c-18,1.9-35,4.9-50.5,8.7c-1.8-8-3.2-15.7-4.1-23.1
		c-3.7-30.4,0.9-54,11.6-60.2c2.4-1.4,5.5-2.1,9.1-2.1V82.7c-6.7,0-12.7,1.4-18,4.5c-22.3,12.9-27.4,53-15.8,103.4
		c-49.3,15.3-81.4,39.6-81.4,65.4s32.3,50.3,81.9,65.5c-11.4,50.6-6.4,90.7,16.1,103.7c5.1,3,11.2,4.5,17.9,4.5
		c21.9,0,50.5-15.6,79.4-42.6c28.9,26.9,57.6,42.3,79.4,42.3c6.6,0,12.7-1.4,18-4.5c22.3-12.9,27.4-53,15.8-103.4
		C418.8,306.3,451,281.8,451,256L451,256z M347.6,203c-2.9,10.3-6.6,20.8-10.7,31.4c-3.2-6.4-6.6-12.7-10.4-19.1
		c-3.6-6.4-7.5-12.5-11.4-18.6C326.3,198.4,337.1,200.5,347.6,203L347.6,203z M311.2,287.7c-6.2,10.7-12.5,20.9-19.2,30.4
		c-11.9,1-23.9,1.6-35.9,1.6c-12,0-24-0.6-35.7-1.5c-6.6-9.5-13-19.6-19.2-30.2c-6.1-10.4-11.5-21-16.5-31.6
		c4.9-10.6,10.5-21.3,16.4-31.7c6.2-10.7,12.5-20.9,19.2-30.4c11.9-1,23.9-1.6,35.9-1.6c12,0,24,0.6,35.7,1.5
		c6.6,9.5,13,19.6,19.2,30.2c6.1,10.5,11.5,21,16.5,31.6C322.6,266.6,317.1,277.2,311.2,287.7L311.2,287.7z M336.8,277.3
		c4.3,10.6,8,21.3,10.9,31.6c-10.4,2.6-21.4,4.6-32.8,6.4c3.9-6.1,7.8-12.4,11.4-18.8C330.2,290.2,333.6,283.7,336.8,277.3
		L336.8,277.3z M256.2,362.2c-7.4-7.6-14.8-16.2-22.1-25.5c7.1,0.3,14.4,0.6,21.9,0.6c7.5,0,14.8-0.2,22.1-0.6
		C270.9,346,263.5,354.5,256.2,362.2z M197,315.3c-11.3-1.7-22.1-3.7-32.6-6.3c3-10.3,6.6-20.8,10.7-31.4
		c3.2,6.4,6.7,12.7,10.5,19.1C189.3,303,193.1,309.3,197,315.3z M255.8,149.9c7.4,7.6,14.8,16.1,22.1,25.5
		c-7.1-0.3-14.4-0.6-21.9-0.6c-7.5,0-14.8,0.2-22.1,0.6C241.1,166.1,248.5,157.6,255.8,149.9z M197,196.8
		c-3.9,6.1-7.8,12.4-11.4,18.8c-3.6,6.4-7,12.7-10.4,19.1c-4.3-10.6-8-21.3-10.9-31.6C174.6,200.6,185.6,198.4,197,196.8L197,196.8z
		 M125,296.2c-28.1-12-46.4-27.7-46.4-40.2c0-12.5,18.2-28.3,46.4-40.2c6.8-3,14.3-5.6,22-8c4.6,15.6,10.5,31.8,17.9,48.4
		c-7.3,16.5-13.2,32.7-17.7,48.2C139.5,301.9,131.9,299.2,125,296.2L125,296.2z M167.8,409.9c-10.8-6.2-15.5-29.8-11.9-60.1
		c0.9-7.5,2.3-15.3,4.1-23.4c15.6,3.8,32.6,6.7,50.5,8.7c10.7,14.7,21.9,28,33.1,39.7c-25.9,24.1-50.3,37.2-66.8,37.2
		C173.2,411.9,170.2,411.2,167.8,409.9L167.8,409.9z M356.4,349.3c3.7,30.4-0.8,54-11.6,60.2c-2.4,1.4-5.5,2.1-9.1,2.1
		c-16.4,0-40.9-13.1-66.8-37.1c11.1-11.7,22.2-25,32.8-39.6c18-1.9,35-4.9,50.6-8.7C354,334.1,355.5,341.9,356.4,349.3z M387,296.2
		c-6.8,2.9-14.3,5.6-22,8c-4.6-15.6-10.5-31.8-17.9-48.4c7.3-16.5,13.2-32.7,17.7-48.2c7.9,2.5,15.3,5.1,22.3,8.1
		c28.1,12,46.4,27.7,46.4,40.2C433.3,268.5,415.1,284.4,387,296.2L387,296.2z"/>
	<circle class="st1" cx="255.9" cy="256" r="36.3"/>
</g>
</svg>
