<?xml version="1.0" encoding="utf-8"?>
<!-- Generator: Adobe Illustrator 26.0.0, SVG Export Plug-In . SVG Version: 6.00 Build 0)  -->
<svg version="1.1" id="Layer_1" xmlns="http://www.w3.org/2000/svg" xmlns:xlink="http://www.w3.org/1999/xlink" x="0px" y="0px"
	 viewBox="0 0 512 512" style="enable-background:new 0 0 512 512;" xml:space="preserve">
<style type="text/css">
	.st0{fill:#CF649A;}
</style>
<path class="st0" d="M435.93,299.94c-17.43,0.1-32.53,4.29-45.19,10.52c-4.68-9.25-9.35-17.34-10.13-23.38
	c-0.88-7.01-1.95-11.3-0.88-19.67c1.07-8.38,5.94-20.26,5.94-21.23c-0.1-0.88-1.07-5.16-11.1-5.26c-10.03-0.1-18.7,1.95-19.67,4.58
	c-0.97,2.63-2.92,8.67-4.19,14.9c-1.75,9.16-20.06,41.59-30.49,58.63c-3.41-6.62-6.33-12.47-6.92-17.14
	c-0.88-7.01-1.95-11.3-0.88-19.67c1.07-8.38,5.94-20.26,5.94-21.23c-0.1-0.88-1.07-5.16-11.1-5.26c-10.03-0.1-18.7,1.95-19.67,4.58
	c-0.97,2.63-2.05,8.86-4.19,14.9c-2.05,6.04-26.4,60.19-32.73,74.31c-3.21,7.21-6.04,12.95-8.08,16.85c-2.05,3.9-0.1,0.29-0.29,0.68
	c-1.75,3.31-2.73,5.16-2.73,5.16v0.1c-1.36,2.43-2.82,4.77-3.51,4.77c-0.49,0-1.46-6.53,0.19-15.49
	c3.6-18.8,12.37-48.11,12.27-49.19c0-0.49,1.65-5.65-5.65-8.28c-7.11-2.63-9.64,1.75-10.23,1.75c-0.58,0-1.07,1.56-1.07,1.56
	s7.89-33.02-15.1-33.02c-14.41,0-34.28,15.68-44.12,30c-6.23,3.41-19.48,10.62-33.5,18.31c-5.36,2.92-10.91,6.04-16.17,8.86
	l-1.07-1.17c-27.86-29.71-79.38-50.74-77.24-90.68c0.78-14.51,5.84-52.79,98.96-99.15c76.26-37.98,137.33-27.56,147.95-4.38
	c15.1,33.11-32.63,94.67-111.91,103.53c-30.19,3.41-46.07-8.28-50.06-12.66c-4.19-4.58-4.77-4.77-6.33-3.9
	c-2.53,1.36-0.97,5.45,0,7.89c2.34,6.14,12.08,17.04,28.63,22.5c14.51,4.77,49.96,7.4,92.82-9.16
	c48.02-18.6,85.51-70.22,74.51-113.37c-11.2-43.93-84.05-58.34-152.91-33.89c-41.01,14.61-85.42,37.4-117.36,67.3
	c-37.98,35.45-44.02,66.42-41.49,79.28c8.86,45.87,72.07,75.77,97.4,97.88c-1.27,0.68-2.43,1.36-3.51,1.95
	c-12.66,6.23-60.87,31.46-72.95,58.15c-13.64,30.19,2.14,51.91,12.66,54.84c32.53,9.06,65.84-7.21,83.86-33.99
	c17.92-26.78,15.78-61.55,7.5-77.43l-0.29-0.58l9.93-5.84c6.43-3.8,12.76-7.3,18.31-10.33c-3.12,8.47-5.36,18.51-6.52,33.11
	c-1.36,17.14,5.65,39.35,14.9,48.11c4.09,3.8,8.96,3.9,11.98,3.9c10.71,0,15.58-8.86,20.94-19.48
	c6.62-12.95,12.47-27.95,12.47-27.95s-7.3,40.61,12.66,40.61c7.3,0,14.61-9.45,17.92-14.32v0.1c0,0,0.19-0.29,0.58-0.97
	c0.41-0.6,0.8-1.22,1.17-1.85v-0.19c2.92-5.06,9.45-16.65,19.19-35.84c12.56-24.74,24.64-55.71,24.64-55.71s1.17,7.6,4.77,20.06
	c2.14,7.4,6.82,15.49,10.42,23.38c-2.92,4.09-4.68,6.43-4.68,6.43l0.1,0.1c-2.34,3.12-4.97,6.43-7.69,9.74
	c-9.93,11.88-21.82,25.42-23.38,29.32c-1.85,4.58-1.46,7.99,2.14,10.71c2.63,1.95,7.3,2.34,12.27,1.95
	c8.96-0.59,15.19-2.82,18.31-4.19c4.87-1.75,10.42-4.38,15.78-8.28c9.74-7.21,15.68-17.43,15.1-31.07
	c-0.29-7.5-2.73-14.9-5.75-21.91c0.88-1.27,1.75-2.53,2.63-3.9c15.39-22.5,27.27-47.24,27.27-47.24s1.17,7.6,4.77,20.06
	c1.85,6.33,5.55,13.25,8.86,20.06c-14.41,11.79-23.47,25.42-26.59,34.38c-5.75,16.56-1.27,24.06,7.21,25.81
	c3.8,0.78,9.25-0.97,13.34-2.73c5.06-1.66,11.2-4.48,16.85-8.67c9.74-7.21,19.09-17.24,18.6-30.78c-0.29-6.23-1.95-12.37-4.19-18.21
	c12.27-5.06,28.15-7.99,48.31-5.55c43.34,5.06,51.91,32.14,50.26,43.44c-1.66,11.3-10.71,17.53-13.73,19.48
	c-3.02,1.85-3.99,2.53-3.7,3.9c0.39,2.05,1.75,1.95,4.38,1.56c3.6-0.59,22.79-9.25,23.57-30.09
	C506.44,328.87,481.02,299.65,435.93,299.94L435.93,299.94z M101.66,412.63c-14.32,15.68-34.48,21.62-43.05,16.56
	c-9.25-5.36-5.65-28.44,11.98-45.09c10.71-10.13,24.64-19.48,33.8-25.23c2.05-1.27,5.16-3.12,8.86-5.36
	c0.58-0.39,0.97-0.58,0.97-0.58c0.68-0.39,1.46-0.88,2.24-1.36C122.99,375.33,116.76,396.17,101.66,412.63L101.66,412.63z
	 M206.36,341.43c-4.97,12.17-15.49,43.44-21.82,41.69c-5.46-1.46-8.77-25.13-1.07-48.5c3.9-11.79,12.17-25.81,17.04-31.27
	c7.89-8.77,16.46-11.69,18.6-8.08C221.66,299.94,209.48,333.83,206.36,341.43z M292.76,382.73c-2.14,1.07-4.09,1.85-4.97,1.27
	c-0.68-0.39,0.88-1.85,0.88-1.85s10.81-11.59,15.1-16.95c2.43-3.12,5.36-6.72,8.47-10.81v1.17
	C312.24,369.58,298.79,378.93,292.76,382.73L292.76,382.73z M359.37,367.53c-1.56-1.17-1.36-4.77,3.9-16.07
	c2.05-4.48,6.72-11.98,14.8-19.09c0.97,2.92,1.56,5.75,1.46,8.38C379.44,358.28,366.97,364.81,359.37,367.53z"/>
</svg>
